<svg width="20" height="20" viewBox="0 0 20 20" fill="none" xmlns="http://www.w3.org/2000/svg">
<path d="M12.9168 15C12.9168 16.6108 11.611 17.9167 10.0002 17.9167C8.38933 17.9167 7.0835 16.6108 7.0835 15" stroke="currentColor" stroke-width="2" stroke-linecap="round" stroke-linejoin="round"/>
<path d="M16.0259 14.9999H3.97406C3.15996 14.9999 2.5 14.3399 2.5 13.5258C2.5 13.1349 2.6553 12.76 2.93174 12.4835L3.43443 11.9808C3.90327 11.512 4.16667 10.8761 4.16667 10.2131V7.91659C4.16667 4.69493 6.77834 2.08325 10 2.08325C13.2217 2.08325 15.8333 4.69492 15.8333 7.91659V10.2131C15.8333 10.8761 16.0967 11.512 16.5656 11.9808L17.0682 12.4835C17.3447 12.76 17.5 13.1349 17.5 13.5258C17.5 14.3399 16.84 14.9999 16.0259 14.9999Z" stroke="currentColor" stroke-width="2" stroke-linecap="round" stroke-linejoin="round"/>
</svg>
