<svg width="20" height="20" viewBox="0 0 20 20" fill="none" xmlns="http://www.w3.org/2000/svg">
<path d="M10 12.5C11.3807 12.5 12.5 11.3807 12.5 10C12.5 8.61929 11.3807 7.5 10 7.5C8.61929 7.5 7.5 8.61929 7.5 10C7.5 11.3807 8.61929 12.5 10 12.5Z" stroke="currentColor" stroke-width="1.5" stroke-linecap="round" stroke-linejoin="round"/>
<path d="M16.1667 12.5C16.0557 12.7513 16.0226 13.0302 16.0716 13.3005C16.1206 13.5708 16.2495 13.8203 16.4417 14.0167L16.4917 14.0667C16.6466 14.2214 16.7695 14.4053 16.8534 14.6076C16.9373 14.8099 16.9805 15.0268 16.9805 15.2458C16.9805 15.4649 16.9373 15.6817 16.8534 15.884C16.7695 16.0863 16.6466 16.2703 16.4917 16.425C16.337 16.5799 16.153 16.7028 15.9507 16.7867C15.7484 16.8706 15.5316 16.9138 15.3125 16.9138C15.0935 16.9138 14.8766 16.8706 14.6743 16.7867C14.472 16.7028 14.2881 16.5799 14.1333 16.425L14.0833 16.375C13.887 16.1828 13.6375 16.0539 13.3672 16.0049C13.0969 15.9559 12.818 15.989 12.5667 16.1C12.3203 16.2056 12.1124 16.381 11.967 16.6046C11.8215 16.8282 11.7449 17.0902 11.7467 17.3575V17.5C11.7467 17.942 11.5711 18.3659 11.2585 18.6785C10.9459 18.9911 10.522 19.1667 10.08 19.1667C9.63801 19.1667 9.21408 18.9911 8.90152 18.6785C8.58896 18.3659 8.41335 17.942 8.41335 17.5V17.4242C8.40785 17.1492 8.32124 16.8817 8.16408 16.6573C8.00693 16.4328 7.78645 16.2616 7.53001 16.1667C7.27866 16.0557 6.99983 16.0226 6.72952 16.0716C6.45921 16.1206 6.20974 16.2495 6.01335 16.4417L5.96335 16.4917C5.80861 16.6466 5.62467 16.7695 5.42237 16.8534C5.22006 16.9373 5.00324 16.9805 4.78418 16.9805C4.56513 16.9805 4.3483 16.9373 4.146 16.8534C3.9437 16.7695 3.75976 16.6466 3.60501 16.4917C3.45013 16.337 3.32722 16.153 3.24334 15.9507C3.15946 15.7484 3.11621 15.5316 3.11621 15.3125C3.11621 15.0935 3.15946 14.8766 3.24334 14.6743C3.32722 14.472 3.45013 14.2881 3.60501 14.1333L3.65501 14.0833C3.84722 13.887 3.97614 13.6375 4.02513 13.3672C4.07413 13.0969 4.04099 12.818 3.93001 12.5667C3.82441 12.3203 3.64903 12.1124 3.42541 11.967C3.20179 11.8215 2.93978 11.7449 2.67251 11.7467H2.53001C2.08801 11.7467 1.66408 11.5711 1.35152 11.2585C1.03896 10.9459 0.863348 10.522 0.863348 10.08C0.863348 9.63801 1.03896 9.21408 1.35152 8.90152C1.66408 8.58896 2.08801 8.41335 2.53001 8.41335H2.60585C2.88087 8.40785 3.14835 8.32124 3.37278 8.16408C3.59722 8.00693 3.76846 7.78645 3.86335 7.53001C3.97432 7.27866 4.00746 6.99983 3.95847 6.72952C3.90947 6.45921 3.78055 6.20974 3.58835 6.01335L3.53835 5.96335C3.38347 5.80861 3.26055 5.62467 3.17668 5.42237C3.0928 5.22006 3.04955 5.00324 3.04955 4.78418C3.04955 4.56513 3.0928 4.3483 3.17668 4.146C3.26055 3.9437 3.38347 3.75976 3.53835 3.60501C3.69309 3.45013 3.87703 3.32722 4.07933 3.24334C4.28164 3.15946 4.49846 3.11621 4.71751 3.11621C4.93657 3.11621 5.15339 3.15946 5.3557 3.24334C5.558 3.32722 5.74194 3.45013 5.89668 3.60501L5.94668 3.65501C6.14308 3.84722 6.39254 3.97614 6.66286 4.02513C6.93317 4.07413 7.21199 4.04099 7.46335 3.93001H7.53001C7.77642 3.82441 7.98429 3.64903 8.12975 3.42541C8.2752 3.20179 8.35179 2.93978 8.35001 2.67251V2.53001C8.35001 2.08801 8.52563 1.66408 8.83818 1.35152C9.15074 1.03896 9.57468 0.863348 10.0167 0.863348C10.4587 0.863348 10.8826 1.03896 11.1952 1.35152C11.5077 1.66408 11.6833 2.08801 11.6833 2.53001V2.60585C11.6816 2.87312 11.7581 3.13513 11.9036 3.35875C12.0491 3.58237 12.2569 3.75776 12.5033 3.86335C12.7547 3.97432 13.0335 4.00746 13.3038 3.95847C13.5741 3.90947 13.8236 3.78055 14.02 3.58835L14.07 3.53835C14.2247 3.38347 14.4087 3.26055 14.611 3.17668C14.8133 3.0928 15.0301 3.04955 15.2492 3.04955C15.4682 3.04955 15.685 3.0928 15.8873 3.17668C16.0896 3.26055 16.2736 3.38347 16.4283 3.53835C16.5832 3.69309 16.7061 3.87703 16.79 4.07933C16.8739 4.28164 16.9171 4.49846 16.9171 4.71751C16.9171 4.93657 16.8739 5.15339 16.79 5.3557C16.7061 5.558 16.5832 5.74194 16.4283 5.89668L16.3783 5.94668C16.1861 6.14308 16.0572 6.39254 16.0082 6.66286C15.9592 6.93317 15.9924 7.21199 16.1033 7.46335V7.53001C16.209 7.77642 16.3843 7.98429 16.608 8.12975C16.8316 8.2752 17.0936 8.35179 17.3608 8.35001H17.5C17.942 8.35001 18.3659 8.52563 18.6785 8.83818C18.9911 9.15074 19.1667 9.57468 19.1667 10.0167C19.1667 10.4587 18.9911 10.8826 18.6785 11.1952C18.3659 11.5077 17.942 11.6833 17.5 11.6833H17.4242C17.1569 11.6816 16.8949 11.7581 16.6713 11.9036C16.4476 12.0491 16.2722 12.2569 16.1667 12.5Z" stroke="currentColor" stroke-width="1.5" stroke-linecap="round" stroke-linejoin="round"/>
</svg>
