<svg width="20" height="20" viewBox="0 0 20 20" fill="none" xmlns="http://www.w3.org/2000/svg">
<path d="M15.5907 2.91286C14.0137 2.12826 12.0841 1.66675 10 1.66675C7.91592 1.66675 5.98625 2.12826 4.4093 2.91286C3.63598 3.29763 3.24932 3.49001 2.87467 4.0949C2.5 4.69979 2.5 5.28548 2.5 6.45686V9.36433C2.5 14.1005 6.2853 16.7337 8.4775 17.8616C9.08892 18.1762 9.39458 18.3334 10 18.3334C10.6054 18.3334 10.9111 18.1762 11.5224 17.8616C13.7147 16.7337 17.5 14.1005 17.5 9.36433V6.45686C17.5 5.28549 17.5 4.6998 17.1253 4.0949C16.7507 3.49001 16.364 3.29763 15.5907 2.91286Z" stroke="currentColor" stroke-width="2" stroke-linecap="round" stroke-linejoin="round"/>
<path d="M7.0835 12.0819C7.0835 10.4711 8.38933 9.16525 10.0002 9.16525C11.611 9.16525 12.9168 10.4711 12.9168 12.0819M11.6668 7.49992C11.6668 8.42042 10.9207 9.16659 10.0002 9.16659C9.07966 9.16659 8.3335 8.42042 8.3335 7.49992C8.3335 6.57944 9.07966 5.83325 10.0002 5.83325C10.9207 5.83325 11.6668 6.57944 11.6668 7.49992Z" stroke="currentColor" stroke-width="2" stroke-linecap="round" stroke-linejoin="round"/>
</svg>
