<svg width="20" height="20" viewBox="0 0 20 20" fill="none" xmlns="http://www.w3.org/2000/svg">
<path d="M11.6669 17.9167H8.3335C5.59393 17.9167 4.22415 17.9167 3.30219 17.1601C3.1334 17.0216 2.97865 16.8668 2.84013 16.6981C2.0835 15.7761 2.0835 14.4063 2.0835 11.6667C2.0835 8.92716 2.0835 7.5574 2.84013 6.63544C2.97865 6.46666 3.1334 6.3119 3.30219 6.17338C4.22415 5.41675 5.59393 5.41675 8.3335 5.41675H11.6669C14.4064 5.41675 15.7762 5.41675 16.6981 6.17338C16.867 6.3119 17.0217 6.46666 17.1602 6.63544C17.9169 7.5574 17.9169 8.92716 17.9169 11.6667C17.9169 14.4063 17.9169 15.7761 17.1602 16.6981C17.0217 16.8668 16.867 17.0216 16.6981 17.1601C15.7762 17.9167 14.4064 17.9167 11.6669 17.9167Z" stroke="currentColor" stroke-width="2" stroke-linecap="round" stroke-linejoin="round"/>
<path d="M2.0835 12.0833V8.74992C2.0835 5.60722 2.0835 4.03588 3.0598 3.05956C4.03612 2.08325 5.60746 2.08325 8.7502 2.08325H11.2502C14.3929 2.08325 15.9642 2.08325 16.9405 3.05956C17.9169 4.03588 17.9169 5.60722 17.9169 8.74992V12.0833" stroke="currentColor" stroke-width="2" stroke-linecap="round" stroke-linejoin="round"/>
<path d="M12.5 11.25C12.5 11.25 10.6588 8.75 9.99996 8.75C9.34121 8.75 7.5 11.25 7.5 11.25M9.99996 9.16667L10 14.5833" stroke="currentColor" stroke-width="2" stroke-linecap="round" stroke-linejoin="round"/>
</svg>
