<svg width="20" height="20" viewBox="0 0 20 20" fill="none" xmlns="http://www.w3.org/2000/svg">
<path d="M16.6667 5.83333H3.33333C2.8731 5.83333 2.5 6.20643 2.5 6.66667V16.6667C2.5 17.1269 2.8731 17.5 3.33333 17.5H16.6667C17.1269 17.5 17.5 17.1269 17.5 16.6667V6.66667C17.5 6.20643 17.1269 5.83333 16.6667 5.83333Z" stroke="currentColor" stroke-width="1.5" stroke-linecap="round" stroke-linejoin="round"/>
<path d="M13.3333 13.3333C13.7936 13.3333 14.1667 12.9602 14.1667 12.5C14.1667 12.0398 13.7936 11.6667 13.3333 11.6667C12.8731 11.6667 12.5 12.0398 12.5 12.5C12.5 12.9602 12.8731 13.3333 13.3333 13.3333Z" stroke="currentColor" stroke-width="1.5" stroke-linecap="round" stroke-linejoin="round"/>
<path d="M14.1667 5.83333L5.83333 2.5H4.16667L2.5 5.83333" stroke="currentColor" stroke-width="1.5" stroke-linecap="round" stroke-linejoin="round"/>
</svg>
