<svg width="432" height="432" viewBox="0 0 432 432" fill="none" xmlns="http://www.w3.org/2000/svg">
<g clip-path="url(#clip0_2418_1537)">
<rect width="432" height="432" rx="216" fill="#00498B"/>
<path d="M-29.0752 287.991H-6.67964L27.6135 322.327L80.803 374.578H284.463L413.237 333.524H445.431V477.586H-29.0752V287.991Z" fill="white"/>
<g clip-path="url(#clip1_2418_1537)">
<path d="M136.665 104.18C141.621 106.982 148.84 111.83 152.611 115.063C158.537 119.911 159.399 120.989 157.891 122.066C156.49 123.036 156.706 123.682 159.938 126.16L163.709 129.177L168.127 125.406C172.975 121.42 175.453 120.45 190.646 117.325C196.248 116.14 200.989 114.955 201.205 114.739C201.42 114.524 197.864 113.77 193.339 113.015C184.181 111.399 176.531 112.369 169.204 116.032L165.325 117.972L162.416 113.877C156.167 105.042 144.315 99.0086 133.217 99.0086H127.722L136.665 104.18Z" fill="white"/>
<path d="M274.903 122.821C272.963 123.252 269.947 124.545 268.33 125.73C266.391 127.238 264.99 127.562 263.913 126.915C261.327 125.299 256.802 125.838 254.216 128.208C251.953 130.148 251.953 130.363 253.785 129.717C258.849 127.885 260.896 127.993 264.344 130.148L268.115 132.41L269.947 129.609C270.916 128.1 273.718 125.945 276.088 124.868C280.937 122.713 280.398 121.636 274.903 122.821Z" fill="white"/>
<path d="M294.085 66.8496C295.221 67.4986 296.519 67.9854 296.924 67.9854C297.411 67.9854 296.843 67.4986 295.708 66.8496C294.572 66.2006 293.355 65.7138 292.868 65.7138C292.462 65.7138 292.949 66.2006 294.085 66.8496Z" fill="black"/>
<path d="M89.5812 184.988C92.598 171.197 100.14 134.348 100.356 132.732C100.571 129.607 103.265 140.382 108.868 167.318C112.423 184.557 115.871 198.888 116.518 199.319C117.164 199.75 117.918 201.904 118.026 204.167C118.134 206.538 118.888 217.312 119.534 228.302C120.181 239.292 121.258 251.36 121.797 255.238C124.491 273.663 126.107 289.394 126.107 298.767C126.107 304.37 126.538 309.327 127.184 309.65C127.831 309.973 128.262 314.822 128.262 320.532C128.262 326.674 128.693 330.66 129.339 330.66C129.986 330.66 133.757 329.044 137.743 326.997L145.07 323.333L149.703 329.906C152.181 333.569 154.659 337.233 155.09 337.987C156.383 340.249 161.663 337.34 161.663 334.431C161.663 333.03 161.986 330.552 162.309 328.721L162.956 325.381L171.252 325.057L179.441 324.734L181.811 315.576C185.259 301.784 185.151 301.353 179.01 307.387L173.73 312.667L170.606 310.404C168.99 309.219 163.279 303.832 158.107 298.552L148.626 288.963L170.067 268.276L191.508 247.588L180.087 236.598C173.838 230.565 164.033 221.299 158.43 216.019L148.195 206.43L160.585 194.685C167.373 188.329 173.299 183.157 173.623 183.264C174.054 183.48 182.027 191.022 191.293 200.073L208.101 216.45L212.626 215.804C215.104 215.373 217.259 214.942 217.475 214.834C217.69 214.618 219.307 214.942 221.138 215.48L221.21 215.501C225.34 216.666 225.341 216.667 244.196 198.133L259.927 182.726L270.809 193.393C276.735 199.211 282.23 204.598 283.092 205.352C284.169 206.322 280.183 210.74 263.159 227.117L241.933 247.696L246.243 251.683C248.613 253.838 258.203 263.104 267.576 272.37L284.6 289.178L275.657 297.798C270.701 302.539 265.314 307.603 263.698 309.003L260.789 311.697L255.832 306.848L250.768 302.108L251.522 305.879C251.846 307.926 252.923 313.098 253.893 317.192L255.509 324.734L262.62 324.195C269.624 323.549 269.731 323.657 270.701 326.566C272.102 330.337 272.748 329.906 277.058 322.256C278.997 318.916 280.614 316.007 280.829 315.791C280.937 315.576 282.445 316.761 284.061 318.377C288.695 322.579 295.913 328.505 296.668 328.505C296.991 328.505 296.991 318.485 296.668 306.094L296.021 283.791L300.978 264.935C303.671 254.592 312.075 221.837 319.617 192.207C327.052 162.577 333.624 137.688 334.055 136.934C334.486 136.072 335.779 138.981 337.18 143.937C342.244 161.177 359.914 225.501 366.918 252.006C371.012 267.09 374.352 279.697 374.568 279.804C374.675 280.02 381.14 281.851 388.898 283.791C396.655 285.73 403.767 287.993 404.736 288.747C405.706 289.501 413.464 301.892 422.083 316.33C433.504 335.509 437.491 343.051 436.952 344.667V346.957H434.662L217.475 448.321L-69.4731 496.142L-145 373.76L-10.5142 305.017L-10.2239 270.466L-10.191 266.552L33.9846 266.228C58.2273 266.013 78.2679 265.69 78.4834 265.582C79.3454 264.612 81.0693 250.605 82.039 235.844C82.6855 226.686 83.4397 215.265 83.7629 210.524C84.0862 205.783 84.7326 201.366 85.3791 200.612C85.9178 199.857 87.8573 192.854 89.5812 184.988Z" fill="white"/>
<path d="M204.759 137.688C204.759 138.011 207.776 139.95 211.547 141.89C219.951 146.307 227.386 152.556 225.554 153.742C224.692 154.28 225.554 155.358 228.14 157.19L231.911 159.775L233.635 157.405C235.575 154.927 243.871 151.694 253.891 149.647C258.848 148.57 259.817 148.139 258.093 147.385C253.891 145.769 243.224 146.415 238.268 148.57L233.635 150.725L228.356 145.984C223.076 141.243 216.611 138.334 208.854 137.472C206.591 137.149 204.759 137.257 204.759 137.688Z" fill="white"/>
<path d="M300.654 141.783C302.163 142.753 303.887 144.153 304.425 144.907C305.287 145.877 306.257 145.769 308.735 144.584L311.967 143.076L308.951 143.722C306.796 144.153 305.072 143.722 303.132 142.106C301.624 140.921 299.792 139.951 299.146 139.951C298.499 139.951 299.254 140.813 300.654 141.783Z" fill="white"/>
<path d="M278.459 148.894C279.644 149.649 282.122 151.48 283.954 153.204L287.509 156.113L293.22 153.42C299.469 150.511 299.469 150.08 293.112 151.911C289.449 152.989 288.694 152.881 284.923 150.295C282.661 148.787 279.752 147.494 278.566 147.601C276.519 147.601 276.519 147.709 278.459 148.894Z" fill="white"/>
</g>
</g>
<defs>
<clipPath id="clip0_2418_1537">
<rect width="432" height="432" rx="216" fill="white"/>
</clipPath>
<clipPath id="clip1_2418_1537">
<rect width="432" height="432" fill="white"/>
</clipPath>
</defs>
</svg>
