<svg width="24" height="24" viewBox="0 0 24 24" fill="none" xmlns="http://www.w3.org/2000/svg">
<path fill-rule="evenodd" clip-rule="evenodd" d="M10.25 4.25C9.67904 4.25 9.25 4.69873 9.25 5.21096C9.25 5.76325 8.80228 6.21096 8.25 6.21096C7.69771 6.21096 7.25 5.76325 7.25 5.21096C7.25 3.55718 8.61182 2.25 10.25 2.25C11.8882 2.25 13.25 3.55718 13.25 5.21096C13.25 5.75255 13.1018 6.26218 12.8437 6.69958C12.4291 7.40231 11.7245 7.97445 10.9268 8.38876C10.1158 8.80996 9.13985 9.10489 8.0937 9.20879C5.99316 9.41742 3.54188 8.85859 1.54989 6.90549C1.15554 6.51883 1.1493 5.8857 1.53596 5.49134C1.92261 5.09699 2.55575 5.09075 2.9501 5.4774C4.45812 6.95598 6.29459 7.37764 7.89603 7.21859C8.70087 7.13865 9.42953 6.9127 10.005 6.61386C10.5936 6.30813 10.9573 5.96106 11.1212 5.68331C11.2034 5.54385 11.25 5.38373 11.25 5.21096C11.25 4.69873 10.821 4.25 10.25 4.25Z" fill="#656565"/>
<path fill-rule="evenodd" clip-rule="evenodd" d="M19.25 7C18.564 7 17.75 7.70915 17.75 8.92814C17.75 9.48042 17.3023 9.92814 16.75 9.92814C16.1977 9.92814 15.75 9.48042 15.75 8.92814C15.75 6.91279 17.1745 5 19.25 5C21.3254 5 22.75 6.91279 22.75 8.92814C22.75 9.83526 22.4758 10.6856 21.9981 11.3645C21.2744 12.5204 19.9591 13.1583 18.5624 13.518C17.1256 13.888 15.4107 14.0136 13.6519 13.9989C10.1274 13.9694 6.22169 13.3729 3.55297 12.8367C3.01151 12.7279 2.66076 12.2008 2.76954 11.6593C2.87833 11.1178 3.40547 10.7671 3.94693 10.8759C6.55462 11.3998 10.3221 11.9709 13.6687 11.9989C15.3455 12.013 16.8656 11.8897 18.0636 11.5812C19.289 11.2656 19.9968 10.8036 20.3116 10.2892L20.3307 10.2579L20.3521 10.2281C20.5921 9.89364 20.75 9.44185 20.75 8.92814C20.75 7.70915 19.936 7 19.25 7Z" fill="#656565"/>
<path fill-rule="evenodd" clip-rule="evenodd" d="M16.9215 17.7565C16.4682 16.8876 15.624 16.1932 14.6259 15.7012C13.6105 15.2007 12.3599 14.8701 10.9782 14.777C8.20665 14.5901 4.84633 15.3537 1.65429 17.7215C1.21072 18.0505 1.11788 18.6768 1.44691 19.1204C1.77595 19.564 2.40227 19.6568 2.84584 19.3278C5.65376 17.2449 8.54339 16.6174 10.8437 16.7724C11.9978 16.8502 12.9886 17.1239 13.7416 17.4951C14.5092 17.8734 14.9585 18.3157 15.1498 18.6844L15.1534 18.6913L15.1571 18.6983C15.2136 18.803 15.2501 18.9332 15.2501 19.081C15.2501 19.5536 14.9284 19.75 14.7501 19.75C14.6022 19.75 14.3849 19.638 14.2885 19.3346C14.1213 18.8082 13.559 18.517 13.0327 18.6842C12.5063 18.8514 12.2152 19.4137 12.3824 19.9401C12.6978 20.9332 13.5917 21.75 14.7501 21.75C16.2285 21.75 17.2501 20.4519 17.2501 19.081C17.2501 18.6048 17.1327 18.1512 16.9215 17.7565Z" fill="#656565"/>
<path fill-rule="evenodd" clip-rule="evenodd" d="M17.75 15.75C17.75 15.1977 18.1977 14.75 18.75 14.75H20.75C21.3023 14.75 21.75 15.1977 21.75 15.75C21.75 16.3023 21.3023 16.75 20.75 16.75H18.75C18.1977 16.75 17.75 16.3023 17.75 15.75Z" fill="#656565"/>
</svg>
