<svg width="24" height="24" viewBox="0 0 24 24" fill="none" xmlns="http://www.w3.org/2000/svg">
<path d="M12 16C14.2091 16 16 14.2091 16 12C16 9.79086 14.2091 8 12 8C9.79086 8 8 9.79086 8 12C8 14.2091 9.79086 16 12 16Z" stroke="currentColor" stroke-width="2" stroke-linecap="round" stroke-linejoin="round"/>
<path d="M16 8V13C16 13.7956 16.3161 14.5587 16.8787 15.1213C17.4413 15.6839 18.2044 16 19 16C19.7956 16 20.5587 15.6839 21.1213 15.1213C21.6839 14.5587 22 13.7956 22 13V12C21.9999 9.74303 21.2362 7.55247 19.8333 5.78452C18.4303 4.01657 16.4705 2.7752 14.2726 2.26229C12.0747 1.74937 9.76793 1.99503 7.72735 2.95936C5.68676 3.92368 4.0324 5.54996 3.03326 7.57372C2.03412 9.59748 1.74897 11.8997 2.22416 14.1061C2.69935 16.3125 3.90697 18.2932 5.65062 19.726C7.39428 21.1588 9.57144 21.9576 11.8281 21.9904C14.0847 22.0232 16.2842 21.288 18.069 19.9065" stroke="currentColor" stroke-width="2" stroke-linecap="round" stroke-linejoin="round"/>
</svg>
