<svg width="20" height="20" viewBox="0 0 20 20" fill="none" xmlns="http://www.w3.org/2000/svg">
<path d="M3.3335 14.9843V8.08993C3.3335 5.06213 3.3335 3.54823 4.3098 2.60761C5.28612 1.66699 6.85746 1.66699 10.0002 1.66699C13.1428 1.66699 14.7142 1.66699 15.6905 2.60761C16.6668 3.54823 16.6668 5.06213 16.6668 8.08993V14.9843C16.6668 16.9059 16.6668 17.8667 16.0228 18.2106C14.7756 18.8765 12.4362 16.6547 11.3252 15.9857C10.6808 15.5977 10.3587 15.4037 10.0002 15.4037C9.64166 15.4037 9.3195 15.5977 8.67516 15.9857C7.56416 16.6547 5.22472 18.8765 3.97754 18.2106C3.3335 17.8667 3.3335 16.9059 3.3335 14.9843Z" stroke="white" stroke-width="2" stroke-linecap="round" stroke-linejoin="round"/>
</svg>
