<svg width="20" height="20" viewBox="0 0 20 20" fill="none" xmlns="http://www.w3.org/2000/svg">
<path fill-rule="evenodd" clip-rule="evenodd" d="M18.3334 11.8398V9.16665C18.3334 8.57173 17.9709 8.13765 17.6229 7.86341C17.2655 7.58175 16.8 7.36456 16.2991 7.19757C15.2885 6.86071 13.9454 6.66666 12.5 6.66666C11.0547 6.66666 9.71152 6.86071 8.70094 7.19757C8.20002 7.36456 7.73452 7.58175 7.37714 7.86341C7.02915 8.13765 6.66669 8.57173 6.66669 9.16665V11.8082C6.70685 11.9406 6.8109 12.0966 7.03433 12.2748C7.344 12.5218 7.81645 12.7534 8.41852 12.95C9.6171 13.3412 11.1691 13.5427 12.4998 13.5427C13.8309 13.5427 15.3859 13.343 16.5871 12.9526C17.1906 12.7564 17.6642 12.5251 17.9746 12.2777C18.1819 12.1127 18.2869 11.9665 18.3334 11.8398ZM9.22802 9.55457C8.83077 9.42215 8.56619 9.28265 8.41619 9.16665C8.56619 9.05065 8.83077 8.91115 9.22802 8.77873C10.0271 8.5124 11.1839 8.33332 12.5 8.33332C13.8161 8.33332 14.9729 8.5124 15.772 8.77873C16.1693 8.91115 16.4339 9.05065 16.5839 9.16665C16.4339 9.28265 16.1693 9.42215 15.772 9.55457C14.9729 9.82098 13.8161 9.99998 12.5 9.99998C11.1839 9.99998 10.0271 9.82098 9.22802 9.55457Z" fill="white"/>
<path d="M18.3334 13.5447C17.9319 13.7857 17.464 13.9819 16.9735 14.1413C15.6201 14.5812 13.93 14.7927 12.4998 14.7927C11.0689 14.7927 9.38127 14.5792 8.03063 14.1382C7.53818 13.9775 7.06875 13.7796 6.66669 13.5367V15.8333C6.66669 16.4282 7.02915 16.8623 7.37714 17.1366C7.73452 17.4182 8.20002 17.6354 8.70094 17.8024C9.71152 18.1392 11.0547 18.3333 12.5 18.3333C13.9454 18.3333 15.2885 18.1392 16.2991 17.8024C16.8 17.6354 17.2655 17.4182 17.6229 17.1366C17.9709 16.8623 18.3334 16.4282 18.3334 15.8333V13.5447Z" fill="white"/>
<path fill-rule="evenodd" clip-rule="evenodd" d="M12.5 5.41668V3.33334C12.5 2.73844 12.1376 2.30434 11.7896 2.03009C11.4321 1.74844 10.9666 1.53124 10.4657 1.36426C9.45515 1.02739 8.112 0.833344 6.66665 0.833344C5.22129 0.833344 3.87818 1.02739 2.86759 1.36426C2.36665 1.53124 1.90115 1.74844 1.54376 2.03009C1.19577 2.30434 0.833313 2.73844 0.833313 3.33334V6.25223C0.866213 6.30458 0.944796 6.40263 1.13223 6.54073C1.427 6.75792 1.86947 6.98126 2.40995 7.18296C3.47404 7.58008 4.78056 7.84324 5.76092 7.85145C6.00566 7.41404 6.33688 7.09168 6.60338 6.88166C7.11724 6.47668 7.73176 6.20303 8.30564 6.01174C9.4749 5.62199 10.9576 5.41668 12.5 5.41668ZM3.39464 3.72129C2.99736 3.58886 2.73279 3.44936 2.58277 3.33334C2.73279 3.21733 2.99736 3.07783 3.39464 2.9454C4.19369 2.67905 5.35058 2.50001 6.66665 2.50001C7.98271 2.50001 9.13956 2.67905 9.93865 2.9454C10.3359 3.07783 10.6005 3.21733 10.7505 3.33334C10.6005 3.44936 10.3359 3.58886 9.93865 3.72129C9.13956 3.98764 7.98271 4.16668 6.66665 4.16668C5.35058 4.16668 4.19369 3.98764 3.39464 3.72129Z" fill="white"/>
<path d="M0.833313 10.246V7.83234C1.17506 8.02729 1.56556 8.20202 1.97289 8.35405C3.0366 8.75105 4.32763 9.03405 5.41767 9.09105C5.41699 9.11605 5.41665 9.14122 5.41665 9.16664V11.5996C4.47555 11.5492 3.32453 11.3371 2.36827 11.0227C1.8164 10.8412 1.36605 10.6376 1.067 10.4351C0.952713 10.3577 0.87978 10.2941 0.833313 10.246Z" fill="white"/>
<path d="M0.833313 11.7438V13.3334C0.833313 13.9283 1.19577 14.3624 1.54376 14.6366C1.90115 14.9183 2.36665 15.1354 2.86759 15.3024C3.5792 15.5396 4.45569 15.706 5.41665 15.7838V12.8512C4.33972 12.8008 3.05 12.5627 1.97788 12.2102C1.5709 12.0764 1.1787 11.9209 0.833313 11.7438Z" fill="white"/>
</svg>
