<svg width="20" height="20" viewBox="0 0 20 20" fill="none" xmlns="http://www.w3.org/2000/svg">
<path d="M15.0001 5.00008C14.961 3.70554 14.8165 2.9334 14.2815 2.39898C13.5485 1.66675 12.3687 1.66675 10.0091 1.66675H6.67216C4.31259 1.66675 3.1328 1.66675 2.39977 2.39898C1.66675 3.13121 1.66675 4.30972 1.66675 6.66675V13.3334C1.66675 15.6904 1.66675 16.8689 2.39977 17.6012C3.1328 18.3334 4.31259 18.3334 6.67216 18.3334H10.0091C12.3687 18.3334 13.5485 18.3334 14.2815 17.6012C14.8165 17.0667 14.961 16.2947 15.0001 15.0001" stroke="currentColor" stroke-width="2" stroke-linecap="round" stroke-linejoin="round"/>
<path d="M16.8682 9.785L17.8492 8.80408C18.0745 8.57875 18.1872 8.46608 18.2474 8.34458C18.362 8.11328 18.362 7.84177 18.2474 7.61051C18.1872 7.48896 18.0745 7.37629 17.8492 7.15095C17.6238 6.9256 17.5111 6.81293 17.3896 6.7527C17.1583 6.6381 16.8868 6.6381 16.6555 6.7527C16.534 6.81293 16.4213 6.9256 16.196 7.15095L15.2151 8.13183M16.8682 9.785L12.4798 14.1735L10 15.0001L10.8266 12.5203L15.2151 8.13183M16.8682 9.785L15.2151 8.13183Z" fill="currentColor"/>
<path d="M16.8682 9.785L17.8492 8.80408C18.0745 8.57875 18.1872 8.46608 18.2474 8.34458C18.362 8.11328 18.362 7.84177 18.2474 7.61051C18.1872 7.48896 18.0745 7.37629 17.8492 7.15095C17.6238 6.9256 17.5111 6.81293 17.3896 6.7527C17.1583 6.6381 16.8868 6.6381 16.6555 6.7527C16.534 6.81293 16.4213 6.9256 16.196 7.15095L15.2151 8.13183M16.8682 9.785L12.4798 14.1735L10 15.0001L10.8266 12.5203L15.2151 8.13183M16.8682 9.785L15.2151 8.13183" stroke="currentColor" stroke-width="2" stroke-linecap="round" stroke-linejoin="round"/>
<path d="M4.16675 15.8333H5.00008L6.04175 13.75L7.08341 15.8333H7.91675" stroke="currentColor" stroke-width="2" stroke-linecap="round" stroke-linejoin="round"/>
<path d="M5 5H11.6667" stroke="currentColor" stroke-width="2" stroke-linecap="round" stroke-linejoin="round"/>
<path d="M5 8.33325H10" stroke="currentColor" stroke-width="2" stroke-linecap="round" stroke-linejoin="round"/>
</svg>
