<svg width="24" height="24" viewBox="0 0 24 24" fill="none" xmlns="http://www.w3.org/2000/svg">
<path d="M13.6177 21.367C13.1841 21.773 12.6044 22 12.0011 22C11.3978 22 10.8182 21.773 10.3845 21.367C6.41302 17.626 1.09076 13.4469 3.68627 7.37966C5.08963 4.09916 8.45834 2 12.0011 2C15.5439 2 18.9126 4.09916 20.316 7.37966C22.9082 13.4393 17.599 17.6389 13.6177 21.367Z" stroke="currentColor" stroke-width="2"/>
<path d="M15.502 11C15.502 12.933 13.935 14.5 12.002 14.5C10.069 14.5 8.50195 12.933 8.50195 11C8.50195 9.067 10.069 7.5 12.002 7.5C13.935 7.5 15.502 9.067 15.502 11Z" stroke="currentColor" stroke-width="2"/>
</svg>
