<svg width="20" height="20" viewBox="0 0 20 20" fill="none" xmlns="http://www.w3.org/2000/svg">
<path d="M1.66667 5L7.42752 8.26414C9.55134 9.4675 10.4487 9.4675 12.5725 8.26414L18.3333 5" stroke="currentColor" stroke-width="1.66667" stroke-linejoin="round"/>
<path d="M1.67981 11.2297C1.73429 13.7844 1.76153 15.0616 2.70414 16.0079C3.64674 16.954 4.95861 16.9869 7.58236 17.0529C9.19942 17.0935 10.8006 17.0935 12.4177 17.0529C15.0414 16.9869 16.3533 16.954 17.2959 16.0079C18.2385 15.0616 18.2658 13.7844 18.3202 11.2297C18.3378 10.4083 18.3378 9.59177 18.3202 8.77035C18.2658 6.21574 18.2385 4.93843 17.2959 3.99224C16.3533 3.04605 15.0414 3.01309 12.4177 2.94716C10.8006 2.90653 9.19942 2.90653 7.58235 2.94715C4.95861 3.01307 3.64674 3.04603 2.70413 3.99223C1.76152 4.93842 1.73429 6.21573 1.67981 8.77035C1.66229 9.59177 1.6623 10.4083 1.67981 11.2297Z" stroke="currentColor" stroke-width="1.66667" stroke-linejoin="round"/>
</svg>
