<svg width="20" height="20" viewBox="0 0 20 20" fill="none" xmlns="http://www.w3.org/2000/svg">
<path d="M4.94865 1.66666L4.99999 1.66667L5.05134 1.66666C5.59644 1.66661 6.0862 1.66657 6.48263 1.71986C6.91542 1.77805 7.35944 1.91316 7.72314 2.27686C8.08684 2.64056 8.22194 3.08457 8.28013 3.51737C8.33341 3.91379 8.33341 4.40355 8.33333 4.94866V5V5.05134C8.33341 5.59644 8.33341 6.08621 8.28013 6.48263C8.22194 6.91543 8.08684 7.35944 7.72314 7.72313C7.35944 8.08683 6.91542 8.22195 6.48263 8.28013C6.0862 8.33341 5.59644 8.33341 5.05134 8.33333H4.99999H4.94865C4.40355 8.33341 3.91379 8.33341 3.51736 8.28013C3.08457 8.22195 2.64055 8.08683 2.27685 7.72313C1.91315 7.35944 1.77804 6.91543 1.71985 6.48263C1.66656 6.08621 1.6666 5.59644 1.66666 5.05133V5V4.94866C1.6666 4.40356 1.66656 3.91379 1.71985 3.51737C1.77804 3.08457 1.91315 2.64056 2.27685 2.27686C2.64055 1.91316 3.08457 1.77805 3.51736 1.71986C3.91379 1.66657 4.40355 1.66661 4.94865 1.66666Z" fill="currentColor"/>
<path d="M4.94865 11.6667H4.99999H5.05134C5.59644 11.6666 6.0862 11.6666 6.48263 11.7198C6.91542 11.7781 7.35944 11.9132 7.72314 12.2768C8.08684 12.6406 8.22194 13.0846 8.28013 13.5174C8.33341 13.9138 8.33341 14.4036 8.33333 14.9487V15V15.0513C8.33341 15.5964 8.33341 16.0862 8.28013 16.4827C8.22194 16.9154 8.08684 17.3594 7.72314 17.7232C7.35944 18.0868 6.91542 18.2219 6.48263 18.2802C6.0862 18.3334 5.59644 18.3334 5.05134 18.3333H4.99999H4.94865C4.40355 18.3334 3.91379 18.3334 3.51736 18.2802C3.08457 18.2219 2.64055 18.0868 2.27685 17.7232C1.91315 17.3594 1.77804 16.9154 1.71985 16.4827C1.66656 16.0862 1.6666 15.5964 1.66666 15.0513V15V14.9487C1.6666 14.4036 1.66656 13.9138 1.71985 13.5174C1.77804 13.0846 1.91315 12.6406 2.27685 12.2768C2.64055 11.9132 3.08457 11.7781 3.51736 11.7198C3.91379 11.6666 4.40355 11.6666 4.94865 11.6667Z" fill="currentColor"/>
<path fill-rule="evenodd" clip-rule="evenodd" d="M1.66666 9.99999C1.66666 9.53974 2.03976 9.16666 2.49999 9.16666H7.49999C7.96022 9.16666 8.33332 9.53974 8.33332 9.99999C8.33332 10.4602 7.96022 10.8333 7.49999 10.8333H2.49999C2.03976 10.8333 1.66666 10.4602 1.66666 9.99999Z" fill="currentColor"/>
<path fill-rule="evenodd" clip-rule="evenodd" d="M9.99999 1.66666C10.4602 1.66666 10.8333 2.03976 10.8333 2.49999V6.66666C10.8333 7.12689 10.4602 7.49999 9.99999 7.49999C9.53974 7.49999 9.16666 7.12689 9.16666 6.66666V2.49999C9.16666 2.03976 9.53974 1.66666 9.99999 1.66666Z" fill="currentColor"/>
<path d="M14.9487 1.66666L15 1.66667L15.0513 1.66666C15.5964 1.66661 16.0862 1.66657 16.4827 1.71986C16.9154 1.77805 17.3594 1.91316 17.7232 2.27686C18.0868 2.64056 18.2219 3.08457 18.2802 3.51737C18.3334 3.91379 18.3334 4.40355 18.3333 4.94866V5V5.05134C18.3334 5.59644 18.3334 6.08621 18.2802 6.48263C18.2219 6.91543 18.0868 7.35944 17.7232 7.72313C17.3594 8.08683 16.9154 8.22195 16.4827 8.28013C16.0862 8.33341 15.5964 8.33341 15.0513 8.33333H15H14.9487C14.4036 8.33341 13.9138 8.33341 13.5174 8.28013C13.0846 8.22195 12.6406 8.08683 12.2768 7.72313C11.9132 7.35944 11.7781 6.91543 11.7198 6.48263C11.6666 6.08621 11.6666 5.59644 11.6667 5.05133V5V4.94866C11.6666 4.40356 11.6666 3.91379 11.7198 3.51737C11.7781 3.08457 11.9132 2.64056 12.2768 2.27686C12.6406 1.91316 13.0846 1.77805 13.5174 1.71986C13.9138 1.66657 14.4036 1.66661 14.9487 1.66666Z" fill="currentColor"/>
<path fill-rule="evenodd" clip-rule="evenodd" d="M12.4487 9.16666C12.4657 9.16666 12.4828 9.16666 12.5 9.16666H17.5C17.9602 9.16666 18.3333 9.53975 18.3333 10C18.3333 10.4602 17.9602 10.8333 17.5 10.8333H12.5C11.8872 10.8333 11.5114 10.8351 11.2394 10.8717C11.0004 10.9038 10.9605 10.9495 10.9557 10.9549C10.9559 10.9547 10.9556 10.9552 10.9557 10.9549C10.9557 10.955 10.9552 10.9556 10.9549 10.9557C10.9495 10.9605 10.9038 11.0004 10.8717 11.2394C10.8351 11.5114 10.8333 11.8872 10.8333 12.5C10.8333 12.9602 10.4602 13.3333 10 13.3333C9.53975 13.3333 9.16666 12.9602 9.16666 12.5C9.16666 12.4828 9.16666 12.4657 9.16666 12.4487C9.16658 11.9036 9.16658 11.4138 9.21983 11.0174C9.27808 10.5846 9.41316 10.1406 9.77683 9.77683C10.1406 9.41316 10.5846 9.27808 11.0173 9.21983C11.4137 9.16658 11.9036 9.16658 12.4487 9.16666ZM16.2604 13.3717C15.9885 13.3351 15.6128 13.3333 15 13.3333C14.5397 13.3333 14.1667 12.9602 14.1667 12.5C14.1667 12.0397 14.5397 11.6667 15 11.6667C15.0172 11.6667 15.0343 11.6667 15.0514 11.6667C15.5964 11.6666 16.0862 11.6666 16.4827 11.7199C16.9158 11.7782 17.3599 11.9137 17.7236 12.2778C18.0871 12.6418 18.222 13.0861 18.2802 13.5192C18.3334 13.916 18.3334 14.4063 18.3333 14.9523C18.3333 14.9693 18.3333 14.9865 18.3333 15.0036C18.3333 15.0207 18.3333 15.0379 18.3333 15.0549C18.3334 15.6009 18.3334 16.0912 18.2802 16.4881C18.222 16.9212 18.0871 17.3654 17.7236 17.7294C17.2 18.2537 16.4934 18.3138 15.8585 18.333C15.3984 18.3468 15.0142 17.9852 15.0004 17.5252C14.9865 17.0651 15.3482 16.6809 15.8082 16.6671C16.118 16.6577 16.301 16.6363 16.4195 16.606C16.5151 16.5816 16.5368 16.5593 16.5435 16.5525C16.5437 16.5522 16.544 16.552 16.5442 16.5517C16.5439 16.5519 16.5443 16.5517 16.5442 16.5517C16.5498 16.5467 16.5962 16.5059 16.6283 16.2663C16.6649 15.9937 16.6667 15.6172 16.6667 15.0036C16.6667 14.39 16.6649 14.0135 16.6283 13.7409C16.5962 13.5013 16.5503 13.4609 16.5447 13.4559C16.5448 13.456 16.5444 13.4557 16.5447 13.4559C16.5446 13.4558 16.544 13.4552 16.5438 13.455C16.539 13.4496 16.4992 13.4038 16.2604 13.3717ZM12.5 11.6667C12.9602 11.6667 13.3333 12.0397 13.3333 12.5V13.75C13.3333 13.9647 13.3611 14.0678 13.3758 14.1066C13.4018 14.1164 13.46 14.1334 13.5722 14.1461C13.7233 14.1632 13.9103 14.1667 14.1667 14.1667C15.0872 14.1667 15.8333 14.9128 15.8333 15.8333C15.8333 16.2936 15.4602 16.6667 15 16.6667C14.5397 16.6667 14.1667 16.2936 14.1667 15.8333C13.9162 15.8333 13.6415 15.8312 13.3851 15.8022C13.1291 15.7733 12.8287 15.7119 12.5471 15.5547C11.8785 15.1815 11.6667 14.495 11.6667 13.75V12.5C11.6667 12.0397 12.0397 11.6667 12.5 11.6667ZM10 13.9743C10.4602 13.9743 10.8333 14.3475 10.8333 14.8077V17.1154C10.8333 17.5757 10.4602 17.9487 10 17.9487C9.53975 17.9487 9.16666 17.5757 9.16666 17.1154V14.8077C9.16666 14.3475 9.53975 13.9743 10 13.9743ZM11.6667 17.5C11.6667 17.0397 12.0397 16.6667 12.5 16.6667H13.3333C13.7936 16.6667 14.1667 17.0397 14.1667 17.5C14.1667 17.9602 13.7936 18.3333 13.3333 18.3333H12.5C12.0397 18.3333 11.6667 17.9602 11.6667 17.5Z" fill="currentColor"/>
</svg>
