<svg width="24" height="24" viewBox="0 0 24 24" fill="none" xmlns="http://www.w3.org/2000/svg">
<path d="M6 20.0027C8.20914 20.0027 10 18.2119 10 16.0027C10 13.7936 8.20914 12.0027 6 12.0027C3.79086 12.0027 2 13.7936 2 16.0027C2 18.2119 3.79086 20.0027 6 20.0027Z" stroke="currentColor" stroke-width="1.75" stroke-linecap="round" stroke-linejoin="round"/>
<path d="M18 20.0027C20.2091 20.0027 22 18.2119 22 16.0027C22 13.7936 20.2091 12.0027 18 12.0027C15.7909 12.0027 14 13.7936 14 16.0027C14 18.2119 15.7909 20.0027 18 20.0027Z" stroke="currentColor" stroke-width="1.75" stroke-linecap="round" stroke-linejoin="round"/>
<path d="M6 16.0027H10.3706C10.7302 16.0027 11.0622 15.8096 11.2399 15.4969L15.5 8.00269" stroke="currentColor" stroke-width="1.75" stroke-linecap="round" stroke-linejoin="round"/>
<path d="M12 13.0027L7 7.00269M7 7.00269H5M7 7.00269H9" stroke="currentColor" stroke-width="1.75" stroke-linecap="round" stroke-linejoin="round"/>
<path d="M20.0039 6.21862C19.7999 5.64262 19.4399 4.74262 18.2399 4.32262C17.4599 4.02262 15.5399 3.90262 15.2999 4.08262C14.9527 4.16943 14.9399 4.56262 15.1079 5.10262C15.2444 5.68157 15.4559 6.42818 15.6479 7.14262C16.1399 8.97342 17.2199 12.9386 18.0239 15.9986" stroke="currentColor" stroke-width="1.75" stroke-linecap="round"/>
</svg>
