<svg width="24" height="24" viewBox="0 0 24 24" fill="none" xmlns="http://www.w3.org/2000/svg">
<path fill-rule="evenodd" clip-rule="evenodd" d="M6 5L3 5.00001V12.7568H6V5ZM2.99999 3.00001L5.99999 3C7.10457 3 8 3.89543 8 5V12.7568C8 13.8614 7.10457 14.7568 6 14.7568H3C1.89543 14.7568 1 13.8614 1 12.7568V5.00001C1 3.89545 1.89542 3.00002 2.99999 3.00001Z" fill="black"/>
<path fill-rule="evenodd" clip-rule="evenodd" d="M6.25 3.75488C6.25 3.34067 6.58579 3.00488 7 3.00488H18.081C19.2496 3.00488 20.2906 3.74343 20.6766 4.84642L22.7766 10.8465C23.4024 12.6345 22.0754 14.5049 20.181 14.5049H15.6541L15.7907 14.8123C16.757 16.9864 16.2845 19.5311 14.6021 21.2135L14.5303 21.2853C14.2374 21.5782 13.7626 21.5782 13.4697 21.2853L6.46967 14.2853C6.32902 14.1446 6.25 13.9538 6.25 13.7549V3.75488Z" fill="black"/>
</svg>
