<svg width="24" height="24" viewBox="0 0 24 24" fill="none" xmlns="http://www.w3.org/2000/svg">
<path d="M19.7065 7.65038C19.8637 7.49323 20.1345 7.47721 20.2937 7.65093C21.2264 8.66824 21.7426 9.42151 21.9126 10.2557C22.0104 10.7357 22.0243 11.2242 21.9537 11.6994C21.7629 12.9836 20.7224 14.0241 18.6414 16.1051L16.1031 18.6434C14.0221 20.7244 12.9816 21.7649 11.6974 21.9557C11.2222 22.0263 10.7337 22.0124 10.2537 21.9146C9.41965 21.7446 8.66645 21.2285 7.64931 20.296C7.47538 20.1366 7.49147 19.8655 7.64879 19.7082C8.52498 18.832 8.48333 17.3698 7.5558 16.4422C6.62826 15.5147 5.16606 15.4731 4.28987 16.3493C4.13255 16.5066 3.86145 16.5227 3.70199 16.3487C2.7695 15.3316 2.2534 14.5784 2.08343 13.7443C1.98563 13.2643 1.97172 12.7758 2.04233 12.3006C2.23317 11.0164 3.27365 9.97588 5.35461 7.89492L7.89296 5.35657C9.97392 3.27561 11.0144 2.23513 12.2986 2.04428C12.7738 1.97368 13.2623 1.98759 13.7423 2.08539C14.5765 2.25538 15.3298 2.77157 16.3471 3.70427C16.5208 3.86355 16.5048 4.13432 16.3476 4.29147C15.4714 5.16765 15.5131 6.62985 16.4406 7.55739C17.3681 8.48493 18.8304 8.52656 19.7065 7.65038Z" stroke="currentColor" stroke-width="2" stroke-linejoin="round"/>
<path d="M19 15L9 5" stroke="currentColor" stroke-width="2" stroke-linecap="round" stroke-linejoin="round"/>
</svg>
