<svg width="16" height="16" viewBox="0 0 16 16" fill="none" xmlns="http://www.w3.org/2000/svg">
<path d="M13.1377 5.09993C13.2425 4.99516 13.423 4.98448 13.5292 5.10029C14.151 5.7785 14.4951 6.28068 14.6084 6.83681C14.6736 7.15681 14.6829 7.48247 14.6358 7.79927C14.5086 8.65541 13.815 9.34907 12.4276 10.7364L10.7354 12.4286C9.3481 13.8159 8.65443 14.5096 7.7983 14.6368C7.4815 14.6839 7.15583 14.6746 6.83583 14.6094C6.27976 14.4961 5.77764 14.152 5.09954 13.5303C4.98359 13.4241 4.99431 13.2433 5.09919 13.1385C5.68332 12.5543 5.65556 11.5795 5.0372 10.9611C4.41884 10.3428 3.44404 10.3151 2.85992 10.8992C2.75504 11.0041 2.5743 11.0148 2.468 10.8988C1.84634 10.2207 1.50227 9.71861 1.38896 9.16254C1.32376 8.84254 1.31448 8.51687 1.36156 8.20007C1.48878 7.34394 2.18244 6.65026 3.56974 5.26295L5.26198 3.57072C6.64928 2.18341 7.34296 1.48976 8.1991 1.36253C8.5159 1.31546 8.84156 1.32473 9.16156 1.38993C9.7177 1.50326 10.2199 1.84739 10.8981 2.46919C11.0139 2.57537 11.0032 2.75589 10.8984 2.86065C10.3143 3.44477 10.3421 4.41957 10.9604 5.03793C11.5788 5.65629 12.5536 5.68405 13.1377 5.09993Z" stroke="currentColor" stroke-linejoin="round"/>
<path d="M12.6667 9.99967L6 3.33301" stroke="currentColor" stroke-linecap="round" stroke-linejoin="round"/>
</svg>
