<svg width="24" height="24" viewBox="0 0 24 24" fill="none" xmlns="http://www.w3.org/2000/svg">
<path d="M3.5 10V15C3.5 17.8284 3.5 19.2426 4.37867 20.1213C5.25735 21 6.67157 21 9.5 21H14.5C17.3284 21 18.7427 21 19.6213 20.1213C20.5 19.2426 20.5 17.8284 20.5 15V10" stroke="black" stroke-width="1.5" stroke-linecap="round" stroke-linejoin="round"/>
<path d="M17 7.50184C17 8.88255 15.8807 9.99997 14.5 9.99997C13.1193 9.99997 12 8.88068 12 7.49997C12 8.88068 10.8807 9.99997 9.5 9.99997C8.11928 9.99997 7 8.88068 7 7.49997C7 8.88068 5.82653 9.99997 4.37899 9.99997C3.59982 9.99997 2.90006 9.67567 2.41998 9.16087C1.5946 8.2758 2.12559 6.97403 2.81446 5.98842L3.202 5.45851C4.08384 4.2527 4.52476 3.6498 5.16491 3.32494C5.80506 3.00008 6.55199 3.00018 8.04585 3.00038L15.9551 3.00143C17.4485 3.00163 18.1952 3.00173 18.8351 3.32658C19.475 3.65143 19.9158 4.25414 20.7974 5.45957L21.1855 5.99029C21.8744 6.97589 22.4054 8.27766 21.58 9.16273C21.0999 9.67754 20.4002 10.0018 19.621 10.0018C18.1734 10.0018 17 8.88255 17 7.50184Z" stroke="black" stroke-width="1.5" stroke-linecap="round" stroke-linejoin="round"/>
<path d="M14.9971 17C14.3133 17.6072 13.2247 18 11.9985 18C10.7723 18 9.68376 17.6072 9 17" stroke="black" stroke-width="1.5" stroke-linecap="round" stroke-linejoin="round"/>
</svg>
