<svg width="400" height="400" viewBox="0 0 400 400" fill="none" xmlns="http://www.w3.org/2000/svg">
<rect x="18.125" y="18.125" width="363.75" height="363.75" rx="181.875" stroke="white" stroke-width="36.25"/>
<path d="M83.75 221.25H36.25C41.4583 275.625 81.625 384.375 200.625 384.375C319.625 384.375 357.292 288.125 361.25 240L335.625 234.375L304.375 108.125L278.125 234.375V276.25H235.625C233.75 268.958 229.875 254 229.375 252.5C228.875 251 229.583 251.042 230 251.25L238.125 259.375L258.125 240L221.875 205L257.5 169.375L237.5 149.375L206.875 178.75C205.833 178.125 203.125 176.875 200.625 176.875C198.125 176.875 195 178.125 193.75 178.75L164.375 149.375L141.875 169.375L179.375 204.375L142.5 240L163.75 260.625C166.042 258.125 170.875 253 171.875 252.5C172.875 252 173.125 252.708 173.125 253.125L167.5 276.25H125.625C123.625 247.25 118.542 190.417 116.25 165.625L101.875 107.5L88.125 165.625L83.75 221.25Z" fill="white"/>
</svg>
