<svg width="24" height="24" viewBox="0 0 24 24" fill="none" xmlns="http://www.w3.org/2000/svg">
<path d="M5.99805 12V17.6841C5.99805 19.4952 5.99805 20.4008 6.58334 20.9635C7.24838 21.6028 9.61589 21.9785 11.993 21.9991C14.309 22.0192 16.6342 21.7022 17.4026 20.9635C17.9879 20.4008 17.9879 19.4952 17.9879 17.6841V12" stroke="black" stroke-width="1.5" stroke-linecap="round" stroke-linejoin="round"/>
<path d="M5.72228 14.022C4.8566 13.7083 3.22971 13.4394 2.49588 12.7032C1.48592 11.69 2.13864 10.3201 3.37707 7.7389C3.93449 6.57709 5.00094 5.72242 6.24362 5.38451C6.41238 5.33862 6.55884 5.23313 6.65592 5.08754L7.93933 3.08866C7.97639 3.03308 8.02343 2.98532 8.08061 2.95083C8.65909 2.60194 10.0921 1.99997 11.9925 1.99997C13.8929 1.99997 15.2321 2.60194 15.8105 2.95083C15.8677 2.98532 15.9148 3.03308 15.9518 3.08866L17.2721 5.06869C17.3692 5.21428 17.5156 5.31977 17.6844 5.36566C18.9271 5.70357 19.9451 6.45011 20.5026 7.61192C21.8937 10.1413 22.5105 11.6707 21.5005 12.6839C20.7667 13.4201 19.1174 13.7116 18.2517 14.0253" stroke="black" stroke-width="1.5" stroke-linecap="round" stroke-linejoin="round"/>
<path d="M6.50195 5.49997L10.7355 8.7926C11.3419 9.26418 11.645 9.49997 12.002 9.49997C12.359 9.49997 12.6621 9.26418 13.2685 8.7926L17.502 5.49997" stroke="black" stroke-width="1.5" stroke-linecap="round" stroke-linejoin="round"/>
<path d="M9.50195 2.99997L11.002 8.99997M14.502 2.99997L13.002 8.99997" stroke="black" stroke-width="1.5" stroke-linecap="round" stroke-linejoin="round"/>
</svg>
