<svg width="32" height="32" viewBox="0 0 32 32" fill="none" xmlns="http://www.w3.org/2000/svg">
<path d="M16.5359 11.0636L20.4291 9.76588C21.6107 9.372 22.2016 9.17505 22.5135 9.48693C22.8253 9.79881 22.6284 10.3896 22.2344 11.5713L20.9367 15.4645C20.2655 17.4781 19.9299 18.4849 19.2079 19.2069C18.4859 19.9289 17.4791 20.2645 15.4655 20.9357L11.5723 22.2334C10.3906 22.6274 9.79979 22.8243 9.48791 22.5125C9.17603 22.2006 9.37297 21.6097 9.76685 20.4281L11.0646 16.5349C11.7358 14.5213 12.0714 13.5145 12.7934 12.7924C13.5155 12.0704 14.5223 11.7348 16.5359 11.0636Z" stroke="currentColor" stroke-width="2.5" stroke-linecap="round" stroke-linejoin="round"/>
<path d="M16.0007 16L15.9922 16.0085" stroke="currentColor" stroke-width="2.5" stroke-linecap="round" stroke-linejoin="round"/>
<path d="M3.33398 15.9997C3.33398 10.0286 3.33398 7.04299 5.18897 5.18799C7.04397 3.33301 10.0295 3.33301 16.0007 3.33301C21.9717 3.33301 24.9573 3.33301 26.8124 5.18799C28.6673 7.04299 28.6673 10.0286 28.6673 15.9997C28.6673 21.9707 28.6673 24.9563 26.8124 26.8114C24.9573 28.6663 21.9717 28.6663 16.0007 28.6663C10.0295 28.6663 7.04397 28.6663 5.18897 26.8114C3.33398 24.9563 3.33398 21.9707 3.33398 15.9997Z" stroke="currentColor" stroke-width="2.5" stroke-linecap="round" stroke-linejoin="round"/>
</svg>
