<svg width="32" height="32" viewBox="0 0 32 32" fill="none" xmlns="http://www.w3.org/2000/svg">
<path fill-rule="evenodd" clip-rule="evenodd" d="M16.0769 2.33301C18.9979 2.33299 21.2921 2.33298 23.0833 2.57379C24.9188 2.82058 26.3752 3.33663 27.5195 4.48089C28.6637 5.62515 29.1797 7.0815 29.4265 8.91703C29.6673 10.7083 29.6673 13.0025 29.6673 15.9234V16.0759C29.6673 18.9969 29.6673 21.2911 29.4265 23.0823C29.1797 24.9178 28.6637 26.3742 27.5195 27.5185C26.3752 28.6627 24.9188 29.1787 23.0833 29.4255C21.2921 29.6663 18.9979 29.6663 16.0769 29.6663H15.9244C13.0035 29.6663 10.7092 29.6663 8.91801 29.4255C7.08248 29.1787 5.62613 28.6627 4.48186 27.5185C3.33761 26.3742 2.82156 24.9178 2.57477 23.0823C2.33396 21.2911 2.33397 18.9969 2.33398 16.0759V15.9234C2.33397 13.0025 2.33396 10.7083 2.57477 8.91703C2.82156 7.0815 3.33761 5.62515 4.48186 4.48089C5.62613 3.33663 7.08248 2.82058 8.91801 2.57379C10.7092 2.33298 13.0035 2.33299 15.9244 2.33301H16.0769ZM16.5359 11.0636L20.4291 9.76587C21.6107 9.37199 22.2016 9.17505 22.5135 9.48693C22.8253 9.79881 22.6284 10.3896 22.2345 11.5713L20.9367 15.4645C20.2655 17.4781 19.9299 18.4849 19.2079 19.2069C18.4859 19.9289 17.4791 20.2645 15.4655 20.9357L11.5723 22.2334C10.3906 22.6274 9.79978 22.8243 9.4879 22.5125C9.17602 22.2006 9.37297 21.6097 9.76685 20.4281L11.0646 16.5349C11.7358 14.5213 12.0714 13.5145 12.7934 12.7924C13.5155 12.0704 14.5223 11.7348 16.5359 11.0636ZM16.9447 15.0557C17.4637 15.5747 17.4637 16.4162 16.9447 16.9353L16.9363 16.9437C16.4172 17.4627 15.5757 17.4627 15.0567 16.9437C14.5376 16.4246 14.5376 15.5831 15.0567 15.0641L15.0651 15.0557C15.5841 14.5366 16.4256 14.5366 16.9447 15.0557Z" fill="currentColor"/>
</svg>
