<svg width="32" height="32" viewBox="0 0 32 32" fill="none" xmlns="http://www.w3.org/2000/svg">
<path d="M4 15.9861V19.3333C4 23.733 4 25.9329 5.36684 27.2998C6.73367 28.6666 8.93356 28.6666 13.3333 28.6666H18.6667C23.0664 28.6666 25.2663 28.6666 26.6332 27.2998C28 25.9329 28 23.733 28 19.3333V15.9861C28 13.7444 28 12.6236 27.5255 11.6534C27.0509 10.6831 26.1663 9.99502 24.3968 8.61879L21.7301 6.54471C18.9775 4.40378 17.6012 3.33331 16 3.33331C14.3988 3.33331 13.0225 4.40378 10.2699 6.54471L7.60321 8.61879C5.83377 9.99502 4.94905 10.6831 4.47453 11.6534C4 12.6236 4 13.7444 4 15.9861Z" stroke="currentColor" stroke-width="2.5" stroke-linecap="round" stroke-linejoin="round"/>
<path d="M20.0001 22.6667C18.9341 23.4966 17.5337 24 16.0001 24C14.4664 24 13.0662 23.4966 12.0001 22.6667" stroke="currentColor" stroke-width="2.5" stroke-linecap="round" stroke-linejoin="round"/>
</svg>
