<svg width="32" height="32" viewBox="0 0 32 32" fill="none" xmlns="http://www.w3.org/2000/svg">
<path d="M16.0001 2.33331C17.0497 2.33331 17.9752 2.69268 18.9493 3.2796C19.9005 3.85268 20.9869 4.69974 22.3439 5.75519L25.0109 7.82941C26.703 9.14552 27.8239 9.98725 28.424 11.2142C29.0239 12.441 29.0001 13.8423 29.0001 15.9857V19.3333C29.0001 21.5048 29.0023 23.2343 28.8204 24.5872C28.6347 25.9687 28.2409 27.107 27.3409 28.0071H27.34C26.4399 28.9069 25.3023 29.3009 23.921 29.4866C22.5682 29.6685 20.8385 29.6663 18.6671 29.6663H13.3331C11.1617 29.6663 9.43204 29.6685 8.07922 29.4866C6.69794 29.3009 5.5603 28.907 4.66028 28.0071C3.76016 27.107 3.36559 25.9688 3.17981 24.5872C2.99792 23.2343 3.00012 21.5048 3.00012 19.3333V15.9857C3.00012 13.8423 2.97643 12.4409 3.57629 11.2142C4.17633 9.98728 5.29736 9.14542 6.98938 7.82941L9.65637 5.75519C11.0133 4.6998 12.0998 3.85269 13.0509 3.2796C14.025 2.69269 14.9505 2.33335 16.0001 2.33331ZM20.7892 22.0521C20.4499 21.6165 19.8216 21.5382 19.3859 21.8773C18.4987 22.5678 17.3152 23.0003 16.0001 23.0003C14.6851 23.0002 13.5025 22.5677 12.6154 21.8773C12.1796 21.5381 11.5504 21.6164 11.2111 22.0521C10.872 22.4878 10.9503 23.1161 11.3859 23.4554C12.6306 24.4244 14.248 25.0002 16.0001 25.0003C17.7522 25.0003 19.3706 24.4244 20.6154 23.4554C21.0507 23.116 21.1283 22.4877 20.7892 22.0521Z" fill="currentColor"/>
</svg>
