<svg width="24" height="24" viewBox="0 0 24 24" fill="none" xmlns="http://www.w3.org/2000/svg">
<path fill-rule="evenodd" clip-rule="evenodd" d="M12.8251 1.75C15.0007 1.74998 15.7354 1.74997 17.0955 1.93282C18.4999 2.12164 19.6537 2.52175 20.5661 3.43414C21.4785 4.34653 21.8786 5.50033 22.0674 6.90471C22.2313 8.12428 22.2483 10.047 22.25 12L22.2436 13.5037C22.235 15.2454 22.1957 16.6539 21.9907 17.7892C21.7817 18.9461 21.3902 19.8839 20.635 20.6391C19.7768 21.4973 18.6846 21.8843 17.3079 22.0694C15.9645 22.25 14.2438 22.25 12.0531 22.25H11.9387C9.74807 22.25 8.0274 22.25 6.68399 22.0694C5.30733 21.8843 4.21508 21.4973 3.35688 20.6391C2.60171 19.8839 2.21021 18.9461 2.00125 17.7892C1.79618 16.6539 1.75687 15.2454 1.74829 13.5037L1.75043 11.9999C1.75216 10.0469 1.76909 8.12426 1.93306 6.90471C2.12187 5.50033 2.52198 4.34653 3.43437 3.43414C4.34676 2.52175 5.50057 2.12164 6.90495 1.93282C8.26508 1.74996 9.99981 1.74998 12.1757 1.75H12.8251ZM20.0852 7.17121C20.2409 8.32894 20.2497 10.2983 20.2502 12.4499C20.2502 12.6155 20.1159 12.75 19.9502 12.75H16.5703C15.2901 12.75 14.4348 13.7898 14.0243 14.6123C13.7341 15.1938 13.1705 15.75 11.9959 15.75C10.8213 15.75 10.2578 15.1938 9.96758 14.6123C9.55709 13.7898 8.70181 12.75 7.42162 12.75H4.05023C3.88455 12.75 3.75022 12.6155 3.75026 12.4499C3.75074 10.2983 3.75957 8.32894 3.91522 7.17121C4.07422 5.9886 4.36973 5.3272 4.84858 4.84835C5.32744 4.3695 5.98884 4.07399 7.17144 3.91499C8.38281 3.75212 10.4828 3.75 12.7502 3.75C15.0176 3.75 15.6176 3.75212 16.829 3.91499C18.0116 4.07399 18.673 4.3695 19.1519 4.84835C19.6307 5.3272 19.9262 5.9886 20.0852 7.17121Z" fill="currentColor"/>
</svg>
