<svg width="32" height="32" viewBox="0 0 32 32" fill="none" xmlns="http://www.w3.org/2000/svg">
<path d="M11.6666 22.9118C11.6666 23.182 11.6666 23.317 11.7302 23.4158C11.7938 23.5148 11.926 23.5749 12.1903 23.6954C12.4853 23.8298 12.8597 24.0138 13.3649 24.265L13.7634 24.4632C14.3145 24.7372 14.59 24.8741 14.7233 24.765C14.8566 24.656 14.7724 24.3418 14.6038 23.7137C14.1801 22.134 14.2046 20.3462 15.0344 18.4068C15.8014 16.6132 17.1236 15.1912 18.7224 14.2566C18.8602 14.176 18.9292 14.1357 18.9646 14.074C19 14.0124 19 13.9357 19 13.7824V5.43986C19 5.19873 19 5.07816 18.94 4.98136C18.88 4.88457 18.7721 4.83089 18.5561 4.72353L14.8568 2.88406C13.9648 2.44053 13.234 2.07718 12.603 1.83374C12.2137 1.6835 12.019 1.60838 11.8472 1.72106L11.8336 1.73041C11.6666 1.85009 11.6666 2.07541 11.6666 2.52605V22.9118Z" fill="currentColor"/>
<path d="M30.3333 14.7968C30.3333 15.4007 30.3333 15.7026 30.1777 15.7738C30.022 15.8451 29.7811 15.6371 29.2989 15.2212C27.654 13.802 25.5184 13.0002 23.3352 13.0002C22.7769 13.0002 22.2216 13.0527 21.6768 13.1545C21.354 13.2148 21.1925 13.245 21.0963 13.165C21 13.085 21 12.9279 21 12.6136V5.7864C21 5.66036 21.1024 5.5583 21.2284 5.5583L24.0705 5.55829C25.2675 5.55825 26.2677 5.55822 27.0621 5.6674C27.9033 5.78297 28.6607 6.0375 29.2671 6.65725C29.8704 7.27394 30.1155 8.03914 30.2272 8.8883C30.3333 9.69596 30.3333 10.7144 30.3333 11.941V14.7968Z" fill="currentColor"/>
<path d="M9.66663 2.60999C9.66663 2.17327 9.66663 1.95492 9.51216 1.83482C9.49436 1.82098 9.47037 1.80563 9.45035 1.79527C9.27655 1.7054 9.09327 1.79004 8.72675 1.95934C8.11229 2.24311 7.40571 2.65302 6.54293 3.15352L4.82488 4.15016C4.20079 4.51218 3.66991 4.82012 3.2544 5.12016C2.81127 5.44015 2.43603 5.79416 2.15992 6.2788C1.88449 6.76228 1.76965 7.26714 1.71657 7.81419C1.66659 8.32936 1.6666 8.95114 1.66663 9.68599V20.6714C1.6666 21.6436 1.66659 22.4474 1.72848 23.0761C1.79097 23.7109 1.92896 24.3486 2.3444 24.864C2.79732 25.426 3.4358 25.808 4.14695 25.9349C4.80441 26.0522 5.42756 25.8549 6.00196 25.5956C6.56984 25.3392 7.3322 24.8969 8.15759 24.4181C8.53507 24.1992 8.87275 24.0033 9.18784 23.8405C9.42923 23.7157 9.54992 23.6533 9.60827 23.5576C9.66663 23.4617 9.66663 23.3356 9.66663 23.0834V2.60999Z" fill="currentColor"/>
<path fill-rule="evenodd" clip-rule="evenodd" d="M23.334 15C20.5945 15 17.9735 16.618 16.872 19.1932C15.8413 21.6027 16.4132 23.6665 17.5483 25.3823C18.4609 26.7616 19.7927 27.9924 20.944 29.0564C21.1607 29.2565 21.3708 29.4509 21.5707 29.6392L21.5729 29.6412C22.0504 30.0884 22.6824 30.3333 23.334 30.3333C23.9857 30.3333 24.6177 30.0884 25.0952 29.6412C25.2848 29.4637 25.4833 29.2808 25.6877 29.0927C26.8507 28.0219 28.1999 26.7795 29.122 25.3827C30.2556 23.6653 30.8255 21.5997 29.7961 19.1932C28.6947 16.618 26.0736 15 23.334 15ZM23.3215 19.3333C21.8552 19.3333 20.6667 20.5272 20.6667 22C20.6667 23.4728 21.8552 24.6667 23.3215 24.6667H23.3452C24.8115 24.6667 26 23.4728 26 22C26 20.5272 24.8115 19.3333 23.3452 19.3333H23.3215Z" fill="currentColor"/>
</svg>
