<svg width="32" height="32" viewBox="0 0 32 32" fill="none" xmlns="http://www.w3.org/2000/svg">
<path d="M15.3335 3.3333L16.6668 3.3333C22.3236 3.3333 25.152 3.3333 26.9093 5.0908C28.6667 6.8481 28.6667 9.6765 28.6667 15.3333V16.6668C28.6667 22.3236 28.6667 25.1521 26.9095 26.9095C25.1521 28.6668 22.3235 28.6668 16.6667 28.6668H15.3333C9.6765 28.6668 6.8481 28.6668 5.0907 26.9095C3.3333 25.1521 3.3333 22.3236 3.3333 16.6668V15.3333C3.3333 9.6764 3.3333 6.8480 5.0907 5.0907C6.8481 3.3332 9.6765 3.3333 15.3335 3.3333Z" stroke="currentColor" stroke-width="2.5" stroke-linecap="round" stroke-linejoin="round"/>
<path d="M16 9.8620C18.5773 9.8620 20.6667 11.9513 20.6667 14.5287C20.6667 17.1060 18.5773 19.1953 16 19.1953C13.4227 19.1953 11.3333 17.1060 11.3333 14.5287C11.3333 11.9513 13.4227 9.8620 16 9.8620Z" stroke="currentColor" stroke-width="2.5" stroke-linecap="round" stroke-linejoin="round"/>
<path d="M25.3099 27.8593C24.968 23.0159 20.9305 19.1927 16 19.1927C11.0695 19.1927 7.0319 23.0159 6.6901 27.8593" stroke="currentColor" stroke-width="2.5" stroke-linecap="round" stroke-linejoin="round"/>
</svg>
