<svg width="24" height="24" viewBox="0 0 24 24" fill="none" xmlns="http://www.w3.org/2000/svg">
<path d="M12 6.75C14.0711 6.75 15.75 8.42893 15.75 10.5C15.75 12.5711 14.0711 14.25 12 14.25C9.92893 14.25 8.25 12.5711 8.25 10.5C8.25 8.42893 9.92893 6.75 12 6.75Z" fill="black"/>
<path d="M20 20.3824C20 16.8575 16.4183 14 12 14C7.58172 14 4 16.8575 4 20.3824C4 20.7235 4.34662 21 4.77419 21H19.2258C19.6534 21 20 20.7235 20 20.3824Z" fill="black"/>
<path d="M11.5001 2.5L12.5001 2.50001C16.7427 2.50006 18.864 2.50008 20.182 3.8181C21.5 5.13611 21.5 7.25741 21.5 11.5V12.5001C21.5 16.7427 21.5 18.8641 20.182 20.1821C18.864 21.5001 16.7426 21.5001 12.5 21.5001H11.5C7.25736 21.5001 5.13604 21.5001 3.81802 20.1821C2.5 18.8641 2.5 16.7427 2.5 12.5001V11.5C2.5 7.25732 2.5 5.13598 3.81804 3.81795C5.13607 2.49993 7.25741 2.49995 11.5001 2.5Z" stroke="black" stroke-width="2" stroke-linecap="round" stroke-linejoin="round"/>
</svg>
