<svg width="32" height="32" viewBox="0 0 32 32" fill="none" xmlns="http://www.w3.org/2000/svg">
<path fill-rule="evenodd" clip-rule="evenodd" d="M16 4.27275C9.52316 4.27275 4.27269 9.52322 4.27269 16C4.27269 22.4768 9.52316 27.7274 16 27.7274C22.4768 27.7274 27.7273 22.4768 27.7273 16C27.7273 9.52322 22.4768 4.27275 16 4.27275ZM1.66663 16C1.66663 8.08394 8.08388 1.66669 16 1.66669C23.9161 1.66669 30.3333 8.08394 30.3333 16C30.3333 23.9162 23.9161 30.3334 16 30.3334C8.08388 30.3334 1.66663 23.9162 1.66663 16Z" fill="currentColor"/>
<path d="M11.3334 12.6667C11.3334 10.0893 13.4227 8 16 8C18.5774 8 20.6667 10.0893 20.6667 12.6667C20.6667 15.244 18.5774 17.3333 16 17.3333C13.4227 17.3333 11.3334 15.244 11.3334 12.6667Z" fill="currentColor"/>
<path d="M7.21168 23.5296C8.57667 21.1408 11.117 19.6667 13.8682 19.6667H18.1306C20.8818 19.6667 23.4222 21.1408 24.7871 23.5296L26.1459 26.1238C23.5512 28.7243 19.9632 30.3332 15.9995 30.3332C12.0356 30.3332 8.44763 28.7242 5.85291 26.1238L7.21168 23.5296Z" fill="currentColor"/>
</svg>
