<svg width="32" height="32" viewBox="0 0 32 32" fill="none" xmlns="http://www.w3.org/2000/svg">
<path d="M29.3333 16C29.3333 23.3638 23.3637 29.3334 16 29.3334C8.63616 29.3334 2.66663 23.3638 2.66663 16C2.66663 8.63622 8.63616 2.66669 16 2.66669C23.3637 2.66669 29.3333 8.63622 29.3333 16Z" stroke="currentColor" stroke-width="2.5"/>
<path d="M19.6667 12.6667C19.6667 14.6917 18.0251 16.3333 16 16.3333C13.975 16.3333 12.3334 14.6917 12.3334 12.6667C12.3334 10.6416 13.975 9 16 9C18.0251 9 19.6667 10.6416 19.6667 12.6667Z" stroke="currentColor" stroke-width="2.5"/>
<path d="M7.33337 25.3335L8.08057 24.0259C9.26752 21.9488 11.4765 20.6668 13.8689 20.6668H18.1312C20.5236 20.6668 22.7325 21.9488 23.9195 24.0259L24.6667 25.3335" stroke="currentColor" stroke-width="2.5" stroke-linecap="round" stroke-linejoin="round"/>
</svg>
