<svg width="32" height="32" viewBox="0 0 32 32" fill="none" xmlns="http://www.w3.org/2000/svg">
<path d="M16 9C18.7615 9 21 11.2386 21 14C21 16.7615 18.7615 19 16 19C13.2386 19 11 16.7615 11 14C11 11.2386 13.2386 9 16 9Z" fill="currentColor"/>
<path d="M26.6667 27.1765C26.6667 22.4767 21.8911 18.6667 16 18.6667C10.1090 18.6667 5.3333 22.4767 5.3333 27.1765C5.3333 27.6313 5.7955 28 6.3656 28H25.6344C26.2045 28 26.6667 27.6313 26.6667 27.1765Z" fill="currentColor"/>
<path d="M15.3335 3.3333L16.6668 3.3333C22.3236 3.3333 25.152 3.3333 26.9093 5.0908C28.6667 6.8481 28.6667 9.6765 28.6667 15.3333V16.6668C28.6667 22.3236 28.6667 25.1521 26.9095 26.9095C25.1521 28.6668 22.3235 28.6668 16.6667 28.6668H15.3333C9.6765 28.6668 6.8481 28.6668 5.0907 26.9095C3.3333 25.1521 3.3333 22.3236 3.3333 16.6668V15.3333C3.3333 9.6764 3.3333 6.8480 5.0907 5.0907C6.8481 3.3332 9.6765 3.3333 15.3335 3.3333Z" stroke="currentColor" stroke-width="2.5" stroke-linecap="round" stroke-linejoin="round"/>
</svg>
