<svg width="24" height="24" viewBox="0 0 24 24" fill="none" xmlns="http://www.w3.org/2000/svg">
<path fill-rule="evenodd" clip-rule="evenodd" d="M14.8282 20.2988C14.8813 20.2651 14.9356 20.25 14.9906 20.25C15.1292 20.25 15.3752 20.397 15.3752 20.75C15.3752 21.103 15.1292 21.25 14.9906 21.25C14.9539 21.25 14.9196 21.2434 14.8867 21.2308C14.3709 21.0333 13.7927 21.2913 13.5952 21.8071C13.3977 22.3228 13.6557 22.901 14.1715 23.0985C14.4273 23.1965 14.7037 23.25 14.9906 23.25C16.3815 23.25 17.3752 22.0538 17.3752 20.75C17.3752 19.4462 16.3815 18.25 14.9906 18.25C14.5066 18.25 14.0583 18.4019 13.6876 18.6556L13.6707 18.6671L13.6544 18.6793C12.7056 19.387 10.902 20.319 8.87359 20.5579C8.32509 20.6225 7.93283 21.1195 7.99744 21.668C8.06205 22.2165 8.55906 22.6088 9.10756 22.5442C11.5334 22.2584 13.65 21.1715 14.8282 20.2988ZM3.48196 20.3483C3.73024 19.8549 4.33144 19.6563 4.82477 19.9046C5.35272 20.1703 5.88967 20.3519 6.42736 20.4651C6.9678 20.5788 7.31368 21.1092 7.19991 21.6496C7.08614 22.1901 6.5558 22.5359 6.01536 22.4222C5.31661 22.2751 4.61507 22.038 3.92567 21.6911C3.43234 21.4428 3.23369 20.8416 3.48196 20.3483Z" fill="#CACACA"/>
<path fill-rule="evenodd" clip-rule="evenodd" d="M18.3752 21.25C18.3752 20.6977 18.823 20.25 19.3752 20.25H21.3752C21.9275 20.25 22.3752 20.6977 22.3752 21.25C22.3752 21.8023 21.9275 22.25 21.3752 22.25H19.3752C18.823 22.25 18.3752 21.8023 18.3752 21.25Z" fill="#CACACA"/>
<path d="M2.12476 13.5976C2.12476 10.9835 4.00946 8.80374 6.51367 8.30413C7.02313 5.57077 9.45313 3.5 12.3748 3.5C15.6031 3.5 18.2318 6.02884 18.3312 9.18539C20.7585 9.52598 22.6248 11.5819 22.6248 14.0672C22.6248 16.5137 20.8164 18.5441 18.4446 18.9318C17.8315 17.6925 16.4459 16.7531 14.8362 16.7531C16.0041 14.8024 14.4665 12.4282 12.375 12.4282C10.8062 12.4282 9.47501 13.6656 9.47501 15.2639C9.47501 15.8162 9.92273 16.2639 10.475 16.2639C11.0273 16.2639 11.475 15.8162 11.475 15.2639C11.475 14.8346 11.8452 14.4282 12.375 14.4282C12.6936 14.4282 12.9778 14.6027 13.1412 14.8708C13.2933 15.1205 13.3097 15.3947 13.182 15.6342C11.9955 17.2202 9.54498 18.5842 7.18578 18.6588C6.2441 18.6886 5.34895 18.5122 4.56146 18.0891C3.09215 17.1202 2.12476 15.4702 2.12476 13.5976Z" fill="#CACACA"/>
<path d="M3.79402 7.46644C3.59502 7.10578 3.46889 6.72117 3.41138 6.33142C4.41948 6.58793 5.52295 6.45655 6.49423 5.86978C7.46039 5.2861 8.10699 4.36715 8.39018 3.34814C8.64957 3.57937 8.87786 3.86179 9.06064 4.19307C9.1015 4.26712 9.13927 4.34212 9.17398 4.41792C9.73345 4.06626 10.3565 3.80409 11.0224 3.65186C10.959 3.50828 10.8888 3.36646 10.8118 3.22686C10.1345 1.99947 9.0439 1.15501 7.81292 0.791052C7.49044 0.695704 7.14163 0.768826 6.88459 0.98566C6.62756 1.20249 6.49671 1.534 6.53637 1.86794C6.64517 2.78414 6.2289 3.69344 5.46006 4.15791C4.70164 4.61609 3.78696 4.53166 3.12004 4.00421C2.85268 3.79276 2.49603 3.73206 2.17378 3.84316C1.85153 3.95426 1.60806 4.22186 1.52782 4.55315C1.22164 5.81727 1.36673 7.20719 2.0429 8.43265C2.40795 9.09425 2.89336 9.64498 3.45658 10.0691C3.92551 9.53426 4.4992 9.09101 5.14625 8.77024C4.60428 8.50482 4.12487 8.06605 3.79402 7.46644Z" fill="#656565"/>
</svg>
