<svg width="24" height="24" viewBox="0 0 24 24" fill="none" xmlns="http://www.w3.org/2000/svg">
<path fill-rule="evenodd" clip-rule="evenodd" d="M10.4179 15.1678C10.8084 14.7772 11.4416 14.7772 11.8321 15.1678L12.125 15.4607L12.4179 15.1678C12.8084 14.7772 13.4416 14.7772 13.8321 15.1678C14.2226 15.5583 14.2226 16.1915 13.8321 16.582L13.5392 16.8749L13.8321 17.1678C14.2226 17.5583 14.2226 18.1915 13.8321 18.582C13.4416 18.9725 12.8084 18.9725 12.4179 18.582L12.125 18.2891L11.8321 18.582C11.4416 18.9725 10.8084 18.9725 10.4179 18.582C10.0273 18.1915 10.0273 17.5583 10.4179 17.1678L10.7108 16.8749L10.4179 16.582C10.0273 16.1915 10.0273 15.5583 10.4179 15.1678ZM6.41789 19.1678C6.80842 18.7772 7.44158 18.7772 7.8321 19.1678L8.125 19.4607L8.41789 19.1678C8.80842 18.7772 9.44158 18.7772 9.83211 19.1678C10.2226 19.5583 10.2226 20.1915 9.8321 20.582L9.53921 20.8749L9.8321 21.1678C10.2226 21.5583 10.2226 22.1915 9.8321 22.582C9.44158 22.9725 8.80842 22.9725 8.41789 22.582L8.125 22.2891L7.8321 22.582C7.44158 22.9725 6.80842 22.9725 6.41789 22.582C6.02737 22.1915 6.02737 21.5583 6.41789 21.1678L6.71078 20.8749L6.41789 20.582C6.02737 20.1915 6.02737 19.5583 6.41789 19.1678ZM14.4179 19.1678C14.8084 18.7772 15.4416 18.7772 15.8321 19.1678L16.125 19.4607L16.4179 19.1678C16.8084 18.7772 17.4416 18.7772 17.8321 19.1678C18.2226 19.5583 18.2226 20.1915 17.8321 20.582L17.5392 20.8749L17.8321 21.1678C18.2226 21.5583 18.2226 22.1915 17.8321 22.582C17.4416 22.9725 16.8084 22.9725 16.4179 22.582L16.125 22.2891L15.8321 22.582C15.4416 22.9725 14.8084 22.9725 14.4179 22.582C14.0273 22.1915 14.0273 21.5583 14.4179 21.1678L14.7108 20.8749L14.4179 20.582C14.0273 20.1915 14.0273 19.5583 14.4179 19.1678Z" fill="#CACACA"/>
<path fill-rule="evenodd" clip-rule="evenodd" d="M6.22929 1.16022C6.76219 1.0152 7.31176 1.32964 7.45678 1.86254L7.47389 1.92541C8.44506 1.82826 9.40218 1.96251 10.2781 2.29048L10.4027 2.07744C10.6816 1.60073 11.2941 1.44036 11.7708 1.71923C12.2475 1.9981 12.4079 2.61062 12.129 3.08733L12.0147 3.28277C12.3368 3.5436 12.6334 3.83735 12.8985 4.16073C13.2487 4.58782 13.1863 5.21791 12.7592 5.56806C12.3321 5.91822 11.7021 5.85584 11.3519 5.42875C11.0297 5.03579 10.6379 4.707 10.1996 4.4559C10.1921 4.45178 10.1847 4.44756 10.1773 4.44322C10.1776 4.44337 10.177 4.44308 10.1773 4.44322C9.251 3.92015 8.12001 3.74225 7.00404 4.03667C5.88318 4.33239 4.99615 5.04472 4.46372 5.95505C3.93211 6.86395 3.75399 7.97023 4.04955 9.05627C4.19767 9.60056 4.44963 10.0883 4.77892 10.5062C5.12074 10.94 5.04619 11.5687 4.61241 11.9106C4.17862 12.2524 3.54986 12.1779 3.20803 11.7441C2.91419 11.3712 2.6616 10.9608 2.45887 10.5182L2.38034 10.5389C1.84633 10.6798 1.29921 10.3611 1.15833 9.82707C1.01744 9.29305 1.33613 8.74594 1.87015 8.60505L1.93583 8.58772C1.84135 7.64102 1.97547 6.71011 2.30013 5.85738L2.09457 5.74026C1.61472 5.46684 1.44737 4.85619 1.72079 4.37633C1.99421 3.89648 2.60486 3.72913 3.08471 4.00255L3.30852 4.13008C3.89929 3.41766 4.65647 2.83214 5.54068 2.43812L5.52697 2.38772C5.38194 1.85481 5.69638 1.30524 6.22929 1.16022Z" fill="#FFBB26"/>
<path d="M1.375 15.1249C1.375 12.4831 3.15606 10.2581 5.58325 9.58406C5.77924 9.52964 5.87724 9.50243 5.93372 9.44457C5.9902 9.38672 6.0149 9.28872 6.06431 9.09271C6.74772 6.38141 9.20171 4.37488 12.125 4.37488C15.3399 4.37488 17.9878 6.80219 18.3361 9.92412C18.3635 10.1695 18.3772 10.2922 18.4397 10.3632C18.5022 10.4341 18.6239 10.4637 18.8673 10.5227C21.1672 11.0808 22.875 13.1534 22.875 15.6249C22.875 17.4264 21.9676 19.016 20.5849 19.9615C20.2299 20.2043 20.0524 20.3257 19.904 20.2667C19.7555 20.2076 19.693 19.9193 19.568 19.3427C19.4698 18.8899 19.2447 18.4591 18.8927 18.1071C18.1998 17.4141 17.2012 17.213 16.3308 17.5038C16.236 17.5355 16.1885 17.5513 16.1554 17.5547C16.1297 17.5573 16.1205 17.5573 16.0948 17.5547C16.0617 17.5514 16.0139 17.5354 15.9183 17.5035C15.7718 17.4546 15.6985 17.4302 15.6599 17.4015C15.6295 17.3788 15.621 17.3704 15.5984 17.3399C15.5697 17.3014 15.5452 17.2281 15.4964 17.0816C15.4645 16.986 15.4485 16.9382 15.4451 16.9051C15.4425 16.8793 15.4425 16.8702 15.4452 16.8444C15.4485 16.8113 15.4644 16.7639 15.4961 16.6691C15.7868 15.7987 15.5857 14.8001 14.8927 14.1071C14.2101 13.4245 13.2309 13.2191 12.3699 13.4911C12.2375 13.5329 12.1712 13.5538 12.125 13.5538C12.0787 13.5538 12.0125 13.5329 11.8801 13.4911C11.0191 13.2191 10.0399 13.4245 9.35723 14.1071C8.66425 14.8001 8.46314 15.7987 8.75392 16.6691C8.7856 16.7639 8.80145 16.8113 8.80482 16.8444C8.80743 16.8702 8.80743 16.8793 8.80483 16.9051C8.80147 16.9382 8.78551 16.986 8.75362 17.0816C8.70473 17.2281 8.68029 17.3014 8.65157 17.3399C8.62893 17.3704 8.62048 17.3788 8.59006 17.4015C8.55149 17.4302 8.47823 17.4546 8.33171 17.5035C8.23612 17.5354 8.1883 17.5514 8.15517 17.5547C8.12945 17.5573 8.12029 17.5573 8.09457 17.5547C8.06145 17.5513 8.014 17.5355 7.91917 17.5038C7.04881 17.213 6.05021 17.4141 5.35723 18.1071C5.05107 18.4133 4.84092 18.7791 4.72677 19.1671C4.56189 19.7277 4.47945 20.008 4.33021 20.0573C4.18096 20.1067 4.00973 19.9776 3.66727 19.7195C2.27505 18.6701 1.375 17.0026 1.375 15.1249Z" fill="#CACACA"/>
</svg>
