<svg width="24" height="24" viewBox="0 0 24 24" fill="none" xmlns="http://www.w3.org/2000/svg">
<path fill-rule="evenodd" clip-rule="evenodd" d="M12.1251 14.8749C12.6774 14.8749 13.1251 15.3226 13.1251 15.8749V17.1087L14.1106 16.5174C14.5842 16.2332 15.1985 16.3868 15.4826 16.8604C15.7668 17.3339 15.6132 17.9482 15.1396 18.2324L14.0687 18.8749L15.1395 19.5174C15.6131 19.8015 15.7666 20.4158 15.4825 20.8894C15.1983 21.363 14.5841 21.5165 14.1105 21.2324L13.1251 20.6411V21.8749C13.1251 22.4272 12.6774 22.8749 12.1251 22.8749C11.5728 22.8749 11.1251 22.4272 11.1251 21.8749V20.6411L10.1398 21.2324C9.66621 21.5165 9.05195 21.363 8.76779 20.8894C8.48364 20.4158 8.6372 19.8015 9.11077 19.5174L10.1815 18.8749L9.11064 18.2324C8.63707 17.9482 8.48351 17.3339 8.76766 16.8604C9.05182 16.3868 9.66608 16.2332 10.1396 16.5174L11.1251 17.1087V15.8749C11.1251 15.3226 11.5728 14.8749 12.1251 14.8749Z" fill="#CACACA"/>
<path d="M6.06431 9.09271C6.0149 9.28872 5.9902 9.38672 5.93372 9.44457C5.87724 9.50243 5.77924 9.52964 5.58325 9.58406C3.15606 10.2581 1.375 12.4831 1.375 15.1249C1.375 18.0524 3.60558 20.469 6.44208 20.8287C6.73611 20.866 6.88312 20.8846 6.98234 20.8051C7.08156 20.7256 7.09972 20.5316 7.13605 20.1438C7.1649 19.8357 7.25059 19.5346 7.38899 19.257C7.49251 19.0494 7.54427 18.9456 7.54427 18.875C7.54427 18.8043 7.49249 18.7005 7.38895 18.4929C7.02055 17.7542 7.02548 16.8489 7.48166 16.0886C7.90848 15.3773 8.63321 14.9547 9.40059 14.8848C9.6222 14.8646 9.733 14.8546 9.79182 14.8193C9.85064 14.784 9.91172 14.6909 10.0339 14.5048C10.4806 13.8243 11.2505 13.3749 12.1254 13.3749C13.0002 13.3749 13.7701 13.8243 14.2168 14.5048C14.339 14.6909 14.4001 14.784 14.4589 14.8193C14.5177 14.8546 14.6285 14.8646 14.8501 14.8848C15.6175 14.9547 16.3423 15.3773 16.7691 16.0886C17.2253 16.8489 17.2302 17.7542 16.8618 18.4929C16.7582 18.7005 16.7065 18.8043 16.7065 18.875C16.7065 18.9456 16.7582 19.0494 16.8617 19.257C17.0277 19.5899 17.1179 19.9566 17.1251 20.3287C17.1292 20.5356 17.1312 20.6391 17.1541 20.6928C17.1898 20.7764 17.2332 20.8189 17.3174 20.853C17.3716 20.8749 17.456 20.8749 17.625 20.8749C20.5245 20.8749 22.875 18.5244 22.875 15.6249C22.875 13.1534 21.1672 11.0808 18.8673 10.5227C18.6239 10.4637 18.5022 10.4341 18.4397 10.3632C18.3772 10.2922 18.3635 10.1695 18.3361 9.92412C17.9878 6.80219 15.3399 4.37488 12.125 4.37488C9.20171 4.37488 6.74772 6.38141 6.06431 9.09271Z" fill="#CACACA"/>
<path fill-rule="evenodd" clip-rule="evenodd" d="M6.22929 1.16022C6.76219 1.0152 7.31176 1.32964 7.45678 1.86254L7.47389 1.92541C8.44506 1.82826 9.40218 1.96251 10.2781 2.29048L10.4027 2.07744C10.6816 1.60073 11.2941 1.44036 11.7708 1.71923C12.2475 1.9981 12.4079 2.61062 12.129 3.08733L12.0147 3.28277C12.3368 3.5436 12.6334 3.83735 12.8985 4.16073C13.2487 4.58782 13.1863 5.21791 12.7592 5.56806C12.3321 5.91822 11.7021 5.85584 11.3519 5.42875C11.0297 5.03579 10.6379 4.707 10.1996 4.4559C10.1921 4.45178 10.1847 4.44756 10.1773 4.44322C10.1776 4.44337 10.177 4.44308 10.1773 4.44322C9.251 3.92015 8.12001 3.74225 7.00404 4.03667C5.88318 4.33239 4.99615 5.04472 4.46372 5.95505C3.93211 6.86395 3.75399 7.97023 4.04955 9.05627C4.19767 9.60056 4.44963 10.0883 4.77892 10.5062C5.12074 10.94 5.04619 11.5687 4.61241 11.9106C4.17862 12.2524 3.54986 12.1779 3.20803 11.7441C2.91419 11.3712 2.6616 10.9608 2.45887 10.5182L2.38034 10.5389C1.84633 10.6798 1.29921 10.3611 1.15833 9.82707C1.01744 9.29305 1.33613 8.74594 1.87015 8.60505L1.93583 8.58772C1.84135 7.64102 1.97547 6.71011 2.30013 5.85738L2.09457 5.74026C1.61472 5.46684 1.44737 4.85619 1.72079 4.37633C1.99421 3.89648 2.60486 3.72913 3.08471 4.00255L3.30852 4.13008C3.89929 3.41766 4.65647 2.83214 5.54068 2.43812L5.52697 2.38772C5.38194 1.85481 5.69638 1.30524 6.22929 1.16022Z" fill="#FFBB26"/>
</svg>
