<svg width="24" height="24" viewBox="0 0 24 24" fill="none" xmlns="http://www.w3.org/2000/svg">
<path fill-rule="evenodd" clip-rule="evenodd" d="M7.26079 1.70458C7.10204 1.19041 6.56221 0.892117 6.03981 1.03606C5.52489 1.17794 5.21549 1.69753 5.32838 2.21317C4.58095 2.55695 3.93453 3.05032 3.41941 3.64606L3.28388 3.56979C2.80258 3.29893 2.19283 3.46953 1.92197 3.95083C1.65111 4.43213 1.82171 5.04188 2.30301 5.31274L2.40469 5.36997C2.14277 6.08867 2.03064 6.86641 2.09645 7.65926C1.57821 7.80955 1.27089 8.34628 1.4078 8.87169C1.54668 9.4047 2.09027 9.72477 2.62334 9.58834C2.80323 9.9609 3.02273 10.3074 3.27521 10.6238C3.61965 11.0555 4.24885 11.1263 4.68056 10.7818C5.11228 10.4374 5.18302 9.80817 4.83858 9.37646C4.55121 9.01628 4.33189 8.59663 4.20301 8.12892C3.94709 7.20011 4.10027 6.24913 4.56334 5.46586C5.02734 4.681 5.80248 4.06454 6.78896 3.80749C7.77205 3.55133 8.7658 3.70673 9.57845 4.1604C9.58437 4.1638 9.59031 4.16714 9.59627 4.17041C9.98084 4.38787 10.3243 4.67239 10.606 5.01183C10.9588 5.43678 11.5892 5.49531 12.0142 5.14256C12.4391 4.78981 12.4977 4.15935 12.1449 3.7344C11.923 3.46705 11.6772 3.22218 11.4116 3.00201L11.4625 2.9162C11.7439 2.44102 11.5869 1.82764 11.1117 1.54618C10.6365 1.26472 10.0231 1.42177 9.74168 1.89695L9.67159 2.01529C8.9144 1.74681 8.09381 1.63403 7.26079 1.70458Z" fill="#FFBB26"/>
<path fill-rule="evenodd" clip-rule="evenodd" d="M14.8282 20.0486C14.8813 20.015 14.9356 19.9999 14.9906 19.9999C15.1292 19.9999 15.3752 20.1469 15.3752 20.4999C15.3752 20.8529 15.1292 20.9999 14.9906 20.9999C14.9539 20.9999 14.9196 20.9933 14.8867 20.9806C14.3709 20.7832 13.7927 21.0412 13.5952 21.5569C13.3977 22.0727 13.6557 22.6509 14.1715 22.8484C14.4273 22.9463 14.7037 22.9999 14.9906 22.9999C16.3815 22.9999 17.3752 21.8037 17.3752 20.4999C17.3752 19.196 16.3815 17.9999 14.9906 17.9999C14.5066 17.9999 14.0583 18.1518 13.6876 18.4054L13.6707 18.417L13.6544 18.4292C12.7056 19.1369 10.902 20.0689 8.87358 20.3078C8.32509 20.3724 7.93283 20.8694 7.99744 21.4179C8.06204 21.9664 8.55906 22.3587 9.10755 22.2941C11.5334 22.0083 13.65 20.9214 14.8282 20.0486ZM3.48196 20.0982C3.73024 19.6048 4.33143 19.4062 4.82477 19.6544C5.35272 19.9201 5.88967 20.1018 6.42736 20.215C6.9678 20.3287 7.31368 20.8591 7.19991 21.3995C7.08614 21.9399 6.5558 22.2858 6.01536 22.1721C5.3166 22.025 4.61506 21.7879 3.92567 21.441C3.43234 21.1927 3.23368 20.5915 3.48196 20.0982Z" fill="#CACACA"/>
<path fill-rule="evenodd" clip-rule="evenodd" d="M18.375 20.9999C18.375 20.4476 18.8227 19.9999 19.375 19.9999H21.375C21.9273 19.9999 22.375 20.4476 22.375 20.9999C22.375 21.5522 21.9273 21.9999 21.375 21.9999H19.375C18.8227 21.9999 18.375 21.5522 18.375 20.9999Z" fill="#CACACA"/>
<path d="M2.125 13.522C2.125 10.9922 4.0097 8.88278 6.5139 8.39929C7.02337 5.75409 9.45337 3.75012 12.375 3.75012C15.6033 3.75012 18.232 6.19739 18.3314 9.25211C20.7587 9.58173 22.625 11.5713 22.625 13.9765C22.625 16.3437 20.8171 18.3084 18.4458 18.684C17.833 17.4437 16.6013 16.5001 14.9907 16.5001C14.957 16.5001 14.9235 16.5006 14.89 16.5015C15.4586 15.5581 15.3394 14.4951 14.8408 13.7059C14.3423 12.9167 13.44 12.3506 12.3752 12.3506C10.8415 12.3506 9.47523 13.5253 9.47523 15.1207C9.47523 15.673 9.92294 16.1207 10.4752 16.1207C11.0275 16.1207 11.4752 15.673 11.4752 15.1207C11.4752 14.7609 11.8103 14.3506 12.3752 14.3506C12.711 14.3506 12.9944 14.5278 13.15 14.7741C13.2999 15.0114 13.3064 15.261 13.1715 15.4782C12.7161 16.2116 11.6944 17.1805 10.3556 17.8308C10.2195 17.8969 10.085 17.9657 9.95035 18.0345C9.25394 18.3907 8.55374 18.7488 7.60756 18.7488C4.57962 18.7488 2.125 16.4087 2.125 13.522Z" fill="#CACACA"/>
</svg>
