<svg width="24" height="24" viewBox="0 0 24 24" fill="none" xmlns="http://www.w3.org/2000/svg">
<path fill-rule="evenodd" clip-rule="evenodd" d="M6.22929 1.16022C6.76219 1.0152 7.31176 1.32964 7.45678 1.86254L7.47389 1.92541C8.44506 1.82826 9.40218 1.96251 10.2781 2.29048L10.4027 2.07744C10.6816 1.60073 11.2941 1.44036 11.7708 1.71923C12.2475 1.9981 12.4079 2.61062 12.129 3.08733L12.0147 3.28277C12.3368 3.5436 12.6334 3.83735 12.8985 4.16073C13.2487 4.58782 13.1863 5.21791 12.7592 5.56806C12.3321 5.91822 11.7021 5.85584 11.3519 5.42875C11.0297 5.03579 10.6379 4.707 10.1996 4.4559C10.1921 4.45178 10.1847 4.44756 10.1773 4.44322C10.1776 4.44337 10.177 4.44308 10.1773 4.44322C9.251 3.92015 8.12001 3.74225 7.00404 4.03667C5.88318 4.33239 4.99615 5.04472 4.46372 5.95505C3.93211 6.86395 3.75399 7.97023 4.04955 9.05627C4.19767 9.60056 4.44963 10.0883 4.77892 10.5062C5.12074 10.94 5.04619 11.5687 4.61241 11.9106C4.17862 12.2524 3.54986 12.1779 3.20803 11.7441C2.91419 11.3712 2.6616 10.9608 2.45887 10.5182L2.38034 10.5389C1.84633 10.6798 1.29921 10.3611 1.15833 9.82707C1.01744 9.29305 1.33613 8.74594 1.87015 8.60505L1.93583 8.58772C1.84135 7.64102 1.97547 6.71011 2.30013 5.85738L2.09457 5.74026C1.61472 5.46684 1.44737 4.85619 1.72079 4.37633C1.99421 3.89648 2.60486 3.72913 3.08471 4.00255L3.30852 4.13008C3.89929 3.41766 4.65647 2.83214 5.54068 2.43812L5.52697 2.38772C5.38194 1.85481 5.69638 1.30524 6.22929 1.16022Z" fill="#FFBB26"/>
<path fill-rule="evenodd" clip-rule="evenodd" d="M12.1219 13.3749C12.6742 13.3749 13.1219 13.8226 13.1219 14.3749V15.8749C13.1219 16.4272 12.6742 16.8749 12.1219 16.8749C11.5697 16.8749 11.1219 16.4272 11.1219 15.8749V14.3749C11.1219 13.8226 11.5697 13.3749 12.1219 13.3749ZM9.12085 16.3749C9.67314 16.3749 10.1209 16.8226 10.1209 17.3749V18.8749C10.1209 19.4272 9.67314 19.8749 9.12085 19.8749C8.56857 19.8749 8.12085 19.4272 8.12085 18.8749V17.3749C8.12085 16.8226 8.56857 16.3749 9.12085 16.3749ZM15.1209 16.3749C15.6732 16.3749 16.1209 16.8226 16.1209 17.3749V18.8749C16.1209 19.4272 15.6732 19.8749 15.1209 19.8749C14.5686 19.8749 14.1209 19.4272 14.1209 18.8749V17.3749C14.1209 16.8226 14.5686 16.3749 15.1209 16.3749ZM6.62085 19.3749C7.17314 19.3749 7.62085 19.8226 7.62085 20.3749V21.8749C7.62085 22.4272 7.17314 22.8749 6.62085 22.8749C6.06857 22.8749 5.62085 22.4272 5.62085 21.8749V20.3749C5.62085 19.8226 6.06857 19.3749 6.62085 19.3749ZM12.1209 19.3749C12.6732 19.3749 13.1209 19.8226 13.1209 20.3749V21.8749C13.1209 22.4272 12.6732 22.8749 12.1209 22.8749C11.5686 22.8749 11.1209 22.4272 11.1209 21.8749V20.3749C11.1209 19.8226 11.5686 19.3749 12.1209 19.3749ZM17.6209 19.3749C18.1732 19.3749 18.6209 19.8226 18.6209 20.3749V21.8749C18.6209 22.4272 18.1732 22.8749 17.6209 22.8749C17.0686 22.8749 16.6209 22.4272 16.6209 21.8749V20.3749C16.6209 19.8226 17.0686 19.3749 17.6209 19.3749Z" fill="#194383"/>
<path d="M6.06431 9.09271C6.0149 9.28872 5.9902 9.38672 5.93372 9.44457C5.87724 9.50243 5.77924 9.52964 5.58325 9.58406C3.15606 10.2581 1.375 12.4831 1.375 15.1249C1.375 16.8791 2.16055 18.4498 3.39906 19.5045C3.66956 19.7349 3.8048 19.85 3.94501 19.8243C4.08521 19.7985 4.19943 19.5903 4.42789 19.174C4.77629 18.5391 5.39238 18.0719 6.12424 17.9243C6.34063 17.8806 6.44883 17.8588 6.50414 17.8162C6.54586 17.7841 6.56702 17.7582 6.59027 17.711C6.62109 17.6484 6.62109 17.5572 6.62109 17.3749C6.62109 15.9942 7.74038 14.8749 9.12109 14.8749C9.28471 14.8749 9.36652 14.8749 9.40898 14.8621C9.51797 14.8291 9.57638 14.7707 9.60933 14.6617C9.62216 14.6193 9.62216 14.5531 9.62216 14.4207V14.3749C9.62216 12.9942 10.7414 11.8749 12.1221 11.8749C13.5029 11.8749 14.6221 12.9942 14.6221 14.3749V14.4225C14.6221 14.5533 14.6221 14.6187 14.6347 14.6607C14.6674 14.7706 14.7265 14.8296 14.8364 14.8624C14.8784 14.8749 14.9593 14.8749 15.1211 14.8749C16.5018 14.8749 17.6211 15.9942 17.6211 17.3749C17.6211 17.5572 17.6211 17.6484 17.6519 17.711C17.6751 17.7583 17.6963 17.7841 17.738 17.8162C17.7933 17.8588 17.9015 17.8806 18.1179 17.9243C18.908 18.0836 19.5631 18.6154 19.8922 19.3286C20.0972 19.7728 20.1997 19.9949 20.3421 20.0284C20.4845 20.0619 20.626 19.9483 20.909 19.7212C22.1076 18.759 22.875 17.2816 22.875 15.6249C22.875 13.1534 21.1672 11.0808 18.8673 10.5227C18.6239 10.4637 18.5022 10.4341 18.4397 10.3632C18.3772 10.2922 18.3635 10.1695 18.3361 9.92412C17.9878 6.80219 15.3399 4.37488 12.125 4.37488C9.20171 4.37488 6.74772 6.38141 6.06431 9.09271Z" fill="#CACACA"/>
</svg>
