<svg width="24" height="24" viewBox="0 0 24 24" fill="none" xmlns="http://www.w3.org/2000/svg">
<path fill-rule="evenodd" clip-rule="evenodd" d="M6.22733 1.03522C6.76024 0.890197 7.30981 1.20464 7.45483 1.73754L7.47194 1.80041C8.44311 1.70326 9.40023 1.83751 10.2761 2.16548L10.4008 1.95244C10.6796 1.47573 11.2922 1.31536 11.7689 1.59423C12.2456 1.8731 12.406 2.48562 12.1271 2.96233L12.0127 3.15777C12.3349 3.4186 12.6315 3.71235 12.8966 4.03573C13.2467 4.46282 13.1844 5.09291 12.7573 5.44306C12.3302 5.79322 11.7001 5.73084 11.3499 5.30375C11.0278 4.91079 10.6359 4.582 10.1977 4.3309C10.1902 4.32678 10.1827 4.32256 10.1753 4.31822C10.1755 4.31837 10.1751 4.31808 10.1753 4.31822C9.24895 3.79515 8.11806 3.61725 7.00209 3.91167C5.88123 4.20739 4.9942 4.91972 4.46176 5.83005C3.93016 6.73895 3.75204 7.84523 4.04759 8.93127C4.19571 9.47556 4.44768 9.96332 4.77696 10.3812C5.11879 10.815 5.04424 11.4437 4.61045 11.7856C4.17666 12.1274 3.5479 12.0529 3.20608 11.6191C2.91224 11.2462 2.65964 10.8358 2.45692 10.3932L2.37839 10.4139C1.84438 10.5548 1.29726 10.2361 1.15638 9.70207C1.01549 9.16805 1.33418 8.62094 1.86819 8.48005L1.93388 8.46272C1.8394 7.51602 1.97351 6.58511 2.29818 5.73238L2.09262 5.61526C1.61277 5.34184 1.44542 4.73119 1.71884 4.25133C1.99226 3.77148 2.60291 3.60413 3.08276 3.87755L3.30657 4.00508C3.89734 3.29266 4.65452 2.70714 5.53873 2.31312L5.52501 2.26272C5.37999 1.72981 5.69443 1.18024 6.22733 1.03522Z" fill="#FFBB26"/>
<path d="M13.1267 14.9999C13.1267 15.5522 12.679 15.9999 12.1267 15.9999C11.5744 15.9999 11.1267 15.5522 11.1267 14.9999C11.1267 14.4476 11.5744 13.9999 12.1267 13.9999C12.679 13.9999 13.1267 14.4476 13.1267 14.9999Z" fill="#CACACA"/>
<path d="M10.1267 17.9999C10.1267 18.5522 9.679 18.9999 9.12671 18.9999C8.57443 18.9999 8.12671 18.5522 8.12671 17.9999C8.12671 17.4476 8.57443 16.9999 9.12671 16.9999C9.679 16.9999 10.1267 17.4476 10.1267 17.9999Z" fill="#CACACA"/>
<path d="M16.1267 17.9999C16.1267 18.5522 15.679 18.9999 15.1267 18.9999C14.5744 18.9999 14.1267 18.5522 14.1267 17.9999C14.1267 17.4476 14.5744 16.9999 15.1267 16.9999C15.679 16.9999 16.1267 17.4476 16.1267 17.9999Z" fill="#CACACA"/>
<path d="M7.12671 20.9999C7.12671 21.5522 6.679 21.9999 6.12671 21.9999C5.57443 21.9999 5.12671 21.5522 5.12671 20.9999C5.12671 20.4476 5.57443 19.9999 6.12671 19.9999C6.679 19.9999 7.12671 20.4476 7.12671 20.9999Z" fill="#CACACA"/>
<path d="M13.1267 21.9999C13.1267 22.5522 12.679 22.9999 12.1267 22.9999C11.5744 22.9999 11.1267 22.5522 11.1267 21.9999C11.1267 21.4476 11.5744 20.9999 12.1267 20.9999C12.679 20.9999 13.1267 21.4476 13.1267 21.9999Z" fill="#CACACA"/>
<path d="M19.1267 20.9999C19.1267 21.5522 18.679 21.9999 18.1267 21.9999C17.5744 21.9999 17.1267 21.5522 17.1267 20.9999C17.1267 20.4476 17.5744 19.9999 18.1267 19.9999C18.679 19.9999 19.1267 20.4476 19.1267 20.9999Z" fill="#CACACA"/>
<path d="M6.06602 8.96771C6.01662 9.16372 5.99191 9.26172 5.93543 9.31957C5.87895 9.37743 5.78095 9.40464 5.58497 9.45906C3.15777 10.1331 1.37671 12.3581 1.37671 14.9999C1.37671 16.7633 2.17057 18.3414 3.4204 19.3962C3.62444 19.5683 3.72646 19.6544 3.84482 19.6483C3.96318 19.6422 4.08419 19.5166 4.32621 19.2655C4.78096 18.7935 5.41955 18.4999 6.12671 18.4999C6.27463 18.4999 6.34859 18.4999 6.37023 18.4967C6.54328 18.4713 6.59817 18.4164 6.62354 18.2434C6.62671 18.2218 6.62671 18.1478 6.62671 17.9999C6.62671 16.6192 7.746 15.4999 9.12671 15.4999C9.27463 15.4999 9.34859 15.4999 9.37023 15.4967C9.54328 15.4713 9.59817 15.4164 9.62354 15.2434C9.62671 15.2218 9.62671 15.1478 9.62671 14.9999C9.62671 13.6192 10.746 12.4999 12.1267 12.4999C13.5074 12.4999 14.6267 13.6192 14.6267 14.9999C14.6267 15.1478 14.6267 15.2218 14.6299 15.2434C14.6553 15.4164 14.7102 15.4713 14.8832 15.4967C14.9049 15.4999 14.9788 15.4999 15.1267 15.4999C16.5074 15.4999 17.6267 16.6192 17.6267 17.9999C17.6267 18.1478 17.6267 18.2218 17.6299 18.2434C17.6553 18.4164 17.7102 18.4713 17.8832 18.4967C17.9049 18.4999 17.9788 18.4999 18.1267 18.4999C18.8919 18.4999 19.5767 18.8436 20.0353 19.3851C20.2707 19.663 20.3884 19.802 20.5108 19.8131C20.6331 19.8242 20.74 19.7366 20.9537 19.5614C22.1277 18.5986 22.8767 17.1367 22.8767 15.4999C22.8767 13.0284 21.1689 10.9558 18.8691 10.3977C18.6257 10.3387 18.504 10.3091 18.4415 10.2382C18.3789 10.1672 18.3653 10.0445 18.3379 9.79912C17.9896 6.67719 15.3416 4.24988 12.1267 4.24988C9.20342 4.24988 6.74943 6.25641 6.06602 8.96771Z" fill="#CACACA"/>
</svg>
