<svg width="24" height="24" viewBox="0 0 24 24" fill="none" xmlns="http://www.w3.org/2000/svg">
<path fill-rule="evenodd" clip-rule="evenodd" d="M6.22929 1.03522C6.76219 0.890197 7.31176 1.20464 7.45678 1.73754L7.47389 1.80041C8.44506 1.70326 9.40218 1.83751 10.2781 2.16548L10.4027 1.95244C10.6816 1.47573 11.2941 1.31536 11.7708 1.59423C12.2475 1.8731 12.4079 2.48562 12.129 2.96233L12.0147 3.15777C12.3368 3.4186 12.6334 3.71235 12.8985 4.03573C13.2487 4.46282 13.1863 5.09291 12.7592 5.44306C12.3321 5.79322 11.7021 5.73084 11.3519 5.30375C11.0297 4.91079 10.6379 4.582 10.1996 4.3309C10.1921 4.32678 10.1847 4.32256 10.1773 4.31822C10.1776 4.31837 10.177 4.31808 10.1773 4.31822C9.251 3.79515 8.12001 3.61725 7.00404 3.91167C5.88318 4.20739 4.99615 4.91972 4.46372 5.83005C3.93211 6.73895 3.75399 7.84523 4.04955 8.93127C4.19767 9.47556 4.44963 9.96332 4.77892 10.3812C5.12074 10.815 5.04619 11.4437 4.61241 11.7856C4.17862 12.1274 3.54986 12.0529 3.20803 11.6191C2.91419 11.2462 2.6616 10.8358 2.45887 10.3932L2.38034 10.4139C1.84633 10.5548 1.29921 10.2361 1.15833 9.70207C1.01744 9.16805 1.33613 8.62094 1.87015 8.48005L1.93583 8.46272C1.84135 7.51602 1.97547 6.58511 2.30013 5.73238L2.09457 5.61526C1.61472 5.34184 1.44737 4.73119 1.72079 4.25133C1.99421 3.77148 2.60486 3.60413 3.08471 3.87755L3.30852 4.00508C3.89929 3.29266 4.65647 2.70714 5.54068 2.31312L5.52697 2.26272C5.38194 1.72981 5.69638 1.18024 6.22929 1.03522Z" fill="#FFBB26"/>
<path d="M17.125 15.9999C17.125 16.5522 16.6773 16.9999 16.125 16.9999C15.5727 16.9999 15.125 16.5522 15.125 15.9999C15.125 15.4476 15.5727 14.9999 16.125 14.9999C16.6773 14.9999 17.125 15.4476 17.125 15.9999Z" fill="#CACACA"/>
<path d="M9.125 15.9999C9.125 16.5522 8.67728 16.9999 8.125 16.9999C7.57271 16.9999 7.125 16.5522 7.125 15.9999C7.125 15.4476 7.57271 14.9999 8.125 14.9999C8.67728 14.9999 9.125 15.4476 9.125 15.9999Z" fill="#CACACA"/>
<path d="M9.125 19.9999C9.125 20.5522 8.67728 20.9999 8.125 20.9999C7.57271 20.9999 7.125 20.5522 7.125 19.9999C7.125 19.4476 7.57271 18.9999 8.125 18.9999C8.67728 18.9999 9.125 19.4476 9.125 19.9999Z" fill="#CACACA"/>
<path d="M13.125 17.9999C13.125 18.5522 12.6773 18.9999 12.125 18.9999C11.5727 18.9999 11.125 18.5522 11.125 17.9999C11.125 17.4476 11.5727 16.9999 12.125 16.9999C12.6773 16.9999 13.125 17.4476 13.125 17.9999Z" fill="#CACACA"/>
<path d="M17.125 19.9999C17.125 20.5522 16.6773 20.9999 16.125 20.9999C15.5727 20.9999 15.125 20.5522 15.125 19.9999C15.125 19.4476 15.5727 18.9999 16.125 18.9999C16.6773 18.9999 17.125 19.4476 17.125 19.9999Z" fill="#CACACA"/>
<path d="M13.125 21.9999C13.125 22.5522 12.6773 22.9999 12.125 22.9999C11.5727 22.9999 11.125 22.5522 11.125 21.9999C11.125 21.4476 11.5727 20.9999 12.125 20.9999C12.6773 20.9999 13.125 21.4476 13.125 21.9999Z" fill="#CACACA"/>
<path d="M6.06431 8.96771C6.0149 9.16372 5.9902 9.26172 5.93372 9.31957C5.87724 9.37743 5.77924 9.40464 5.58325 9.45906C3.15606 10.1331 1.375 12.3581 1.375 14.9999C1.375 17.4785 2.94329 19.5908 5.1417 20.3987C5.20953 20.4236 5.24344 20.4361 5.26634 20.4406C5.44621 20.4765 5.59301 20.374 5.62139 20.1928C5.625 20.1698 5.625 20.1131 5.625 19.9999C5.625 19.4691 5.79042 18.9769 6.07252 18.5721C6.29462 18.2534 6.40567 18.0941 6.40567 17.9999C6.40567 17.9057 6.29462 17.7463 6.07252 17.4276C5.79042 17.0228 5.625 16.5307 5.625 15.9999C5.625 14.6192 6.74429 13.4999 8.125 13.4999C9.08877 13.4999 9.92517 14.0452 10.3424 14.8442C10.5985 15.3345 10.7265 15.5796 10.8133 15.6231C10.9001 15.6665 11.173 15.6219 11.7188 15.5327C11.851 15.5111 11.9867 15.4999 12.125 15.4999C12.2633 15.4999 12.3989 15.5111 12.5311 15.5327C13.077 15.6219 13.3499 15.6665 13.4367 15.6231C13.5235 15.5796 13.6515 15.3345 13.9075 14.8442C14.3248 14.0452 15.1612 13.4999 16.125 13.4999C17.5057 13.4999 18.625 14.6192 18.625 15.9999C18.625 16.5307 18.4596 17.0228 18.1775 17.4276C17.9554 17.7463 17.8443 17.9057 17.8443 17.9999C17.8443 18.0941 17.9554 18.2535 18.1775 18.5721C18.4596 18.9769 18.625 19.4691 18.625 19.9999C18.625 20.2284 18.625 20.3427 18.6492 20.3992C18.6955 20.5075 18.7775 20.5678 18.8947 20.5797C18.9559 20.5859 19.0353 20.5611 19.1941 20.5114C21.3271 19.8442 22.875 17.8528 22.875 15.4999C22.875 13.0284 21.1672 10.9558 18.8673 10.3977C18.6239 10.3387 18.5022 10.3091 18.4397 10.2382C18.3772 10.1672 18.3635 10.0445 18.3361 9.79912C17.9878 6.67719 15.3399 4.24988 12.125 4.24988C9.20171 4.24988 6.74772 6.25641 6.06431 8.96771Z" fill="#CACACA"/>
</svg>
