<svg width="24" height="24" viewBox="0 0 24 24" fill="none" xmlns="http://www.w3.org/2000/svg">
<path fill-rule="evenodd" clip-rule="evenodd" d="M6.22929 1.16022C6.76219 1.0152 7.31176 1.32964 7.45678 1.86254L7.47389 1.92541C8.44506 1.82826 9.40218 1.96251 10.2781 2.29048L10.4027 2.07744C10.6816 1.60073 11.2941 1.44036 11.7708 1.71923C12.2475 1.9981 12.4079 2.61062 12.129 3.08733L12.0147 3.28277C12.3368 3.5436 12.6334 3.83735 12.8985 4.16073C13.2487 4.58782 13.1863 5.21791 12.7592 5.56806C12.3321 5.91822 11.7021 5.85584 11.3519 5.42875C11.0297 5.03579 10.6379 4.707 10.1996 4.4559C10.1921 4.45178 10.1847 4.44756 10.1773 4.44322C10.1776 4.44337 10.177 4.44308 10.1773 4.44322C9.251 3.92015 8.12001 3.74225 7.00404 4.03667C5.88318 4.33239 4.99615 5.04472 4.46372 5.95505C3.93211 6.86395 3.75399 7.97023 4.04955 9.05627C4.19767 9.60056 4.44963 10.0883 4.77892 10.5062C5.12074 10.94 5.04619 11.5687 4.61241 11.9106C4.17862 12.2524 3.54986 12.1779 3.20803 11.7441C2.91419 11.3712 2.6616 10.9608 2.45887 10.5182L2.38034 10.5389C1.84633 10.6798 1.29921 10.3611 1.15833 9.82707C1.01744 9.29305 1.33613 8.74594 1.87015 8.60505L1.93583 8.58772C1.84135 7.64102 1.97547 6.71011 2.30013 5.85738L2.09457 5.74026C1.61472 5.46684 1.44737 4.85619 1.72079 4.37633C1.99421 3.89648 2.60486 3.72913 3.08471 4.00255L3.30852 4.13008C3.89929 3.41766 4.65647 2.83214 5.54068 2.43812L5.52697 2.38772C5.38194 1.85481 5.69638 1.30524 6.22929 1.16022Z" fill="#FFBB26"/>
<path d="M13.2554 14.0408C13.7161 14.3453 13.8427 14.9657 13.5382 15.4264L12.2501 17.375H12.9282C13.104 17.3748 13.3338 17.3745 13.5264 17.4032C13.7373 17.4347 14.2217 17.5445 14.4872 18.0449C14.751 18.5419 14.5743 19.0028 14.4848 19.1938C14.4023 19.3699 14.2755 19.5614 14.1776 19.7092L12.3814 22.4264C12.0768 22.8872 11.4564 23.0138 10.9957 22.7092C10.535 22.4046 10.4084 21.7843 10.7129 21.3235L12.001 19.375H11.3229C11.1471 19.3752 10.9173 19.3754 10.7247 19.3467C10.5138 19.3153 10.0294 19.2054 9.7639 18.7051C9.50017 18.2081 9.67687 17.7472 9.76631 17.5562C9.84881 17.38 9.97568 17.1885 10.0735 17.0408L11.8697 14.3235C12.1743 13.8628 12.7947 13.7362 13.2554 14.0408Z" fill="#FFBB26"/>
<path d="M6.01793 9.29028C5.99187 9.41005 5.89894 9.50466 5.77975 9.53324C3.25279 10.1391 1.375 12.4123 1.375 15.1249C1.375 18.3005 3.94936 20.8749 7.125 20.8749H9.08649C9.19118 20.8749 9.28756 20.8179 9.33799 20.7261C9.41356 20.5887 9.36366 20.4174 9.23621 20.3259C8.94546 20.1173 8.66018 19.8232 8.43977 19.4079C7.8326 18.2637 8.26519 17.2263 8.40876 16.9197C8.5396 16.6403 8.71998 16.3686 8.80973 16.2335L10.6193 13.4961C11.3807 12.3443 12.9316 12.0278 14.0834 12.7891C15.2352 13.5505 15.5517 15.1015 14.7904 16.2533C14.784 16.2629 14.7871 16.2758 14.797 16.2816C15.1597 16.4917 15.5372 16.8215 15.8131 17.3414C16.4203 18.4856 15.9877 19.523 15.8441 19.8296C15.7133 20.109 15.533 20.3806 15.4432 20.5158C15.3415 20.6697 15.4518 20.8749 15.6363 20.8749H17.625C20.5245 20.8749 22.875 18.5244 22.875 15.6249C22.875 13.0659 21.0441 10.9345 18.6208 10.4692C18.4776 10.4417 18.3694 10.3209 18.3591 10.1754C18.1287 6.93343 15.4256 4.37488 12.125 4.37488C9.13114 4.37488 6.62951 6.47946 6.01793 9.29028Z" fill="#CACACA"/>
</svg>
