<svg width="24" height="24" viewBox="0 0 24 24" fill="none" xmlns="http://www.w3.org/2000/svg">
<path fill-rule="evenodd" clip-rule="evenodd" d="M6.22929 1.1601C6.76219 1.01508 7.31176 1.32952 7.45678 1.86242L7.47389 1.92529C8.44506 1.82814 9.40218 1.96239 10.2781 2.29036L10.4027 2.07732C10.6816 1.60061 11.2941 1.44024 11.7708 1.71911C12.2475 1.99798 12.4079 2.6105 12.129 3.0872L12.0147 3.28265C12.3368 3.54347 12.6334 3.83723 12.8985 4.1606C13.2487 4.5877 13.1863 5.21778 12.7592 5.56794C12.3321 5.91809 11.7021 5.85572 11.3519 5.42863C11.0297 5.03567 10.6379 4.70688 10.1996 4.45578C10.1921 4.45166 10.1847 4.44743 10.1773 4.4431C10.1776 4.44325 10.177 4.44295 10.1773 4.4431C9.251 3.92003 8.12001 3.74213 7.00404 4.03655C5.88318 4.33226 4.99615 5.0446 4.46372 5.95493C3.93211 6.86383 3.75399 7.9701 4.04955 9.05615C4.19767 9.60044 4.44963 10.0882 4.77892 10.5061C5.12074 10.9399 5.04619 11.5686 4.61241 11.9104C4.17862 12.2523 3.54986 12.1777 3.20803 11.7439C2.91419 11.3711 2.6616 10.9607 2.45887 10.518L2.38034 10.5388C1.84633 10.6796 1.29921 10.361 1.15833 9.82694C1.01744 9.29293 1.33613 8.74582 1.87015 8.60493L1.93583 8.5876C1.84135 7.6409 1.97547 6.70998 2.30013 5.85726L2.09457 5.74014C1.61472 5.46672 1.44737 4.85607 1.72079 4.37621C1.99421 3.89636 2.60486 3.72901 3.08471 4.00243L3.30852 4.12995C3.89929 3.41753 4.65647 2.83202 5.54068 2.43799L5.52697 2.38759C5.38194 1.85469 5.69638 1.30512 6.22929 1.1601Z" fill="#FFBB26"/>
<path d="M9.75542 14.0407C10.2161 14.3452 10.3427 14.9656 10.0382 15.4263L8.75014 17.3749L9.42826 17.3748C9.60405 17.3747 9.83381 17.3744 10.0264 17.4031C10.2373 17.4346 10.7217 17.5444 10.9872 18.0448C11.251 18.5417 11.0743 19.0027 10.9848 19.1936C10.9023 19.3698 10.7755 19.5613 10.6776 19.7091L8.88139 22.4263C8.57684 22.887 7.95646 23.0136 7.49574 22.7091C7.03501 22.4045 6.90841 21.7841 7.21296 21.3234L8.50102 19.3749H7.82289C7.64711 19.3751 7.41734 19.3753 7.22471 19.3466C7.01382 19.3152 6.52941 19.2053 6.2639 18.705C6.00017 18.208 6.17687 17.7471 6.26631 17.5561C6.34881 17.3799 6.47568 17.1884 6.57354 17.0407L8.36976 14.3234C8.67432 13.8627 9.29469 13.7361 9.75542 14.0407Z" fill="#FFBB26"/>
<path d="M13.5727 18.9804C14.0666 19.2274 14.2669 19.8281 14.0199 20.3221L13.0199 22.3221C12.7729 22.8161 12.1722 23.0163 11.6782 22.7693C11.1843 22.5223 10.984 21.9216 11.231 21.4277L12.231 19.4277C12.478 18.9337 13.0787 18.7334 13.5727 18.9804Z" fill="#00498B"/>
<path d="M16.5727 18.9804C17.0666 19.2274 17.2669 19.8281 17.0199 20.3221L16.0199 22.3221C15.7729 22.8161 15.1722 23.0163 14.6782 22.7693C14.1843 22.5223 13.984 21.9216 14.231 21.4277L15.231 19.4277C15.478 18.9337 16.0787 18.7334 16.5727 18.9804Z" fill="#00498B"/>
<path d="M5.58325 9.58394C3.15606 10.258 1.375 12.483 1.375 15.1248C1.375 17.3723 2.6645 19.3187 4.54403 20.2644C5.15223 20.5704 5.45634 20.7234 5.50744 20.6721C5.55855 20.6207 5.3894 20.2882 5.0511 19.6232C5.01448 19.5512 4.97751 19.4791 4.93977 19.408C4.3326 18.2638 4.76519 17.2264 4.90876 16.9199C5.03787 16.6441 5.30261 16.2443 5.30959 16.2338L7.11932 13.4962C7.88071 12.3444 9.43165 12.0279 10.5834 12.7893C11.7352 13.5506 12.0517 15.1016 11.2904 16.2534C11.284 16.263 11.2871 16.2759 11.297 16.2817C11.6597 16.4918 12.0372 16.8217 12.3131 17.3416C12.3567 17.4237 12.4515 17.4658 12.5418 17.444C13.0948 17.3108 13.6959 17.3644 14.2445 17.6387C14.4516 17.7423 14.5552 17.7941 14.626 17.7941C14.6968 17.7941 14.8005 17.7424 15.008 17.6388C15.6875 17.2995 16.5128 17.2729 17.2445 17.6387C18.088 18.0605 18.5889 18.8948 18.6249 19.7748C18.6469 20.3122 18.6579 20.5808 18.7855 20.6655C18.9132 20.7502 19.0982 20.6808 19.468 20.5421C21.4584 19.7958 22.875 17.8757 22.875 15.6248C22.875 13.1533 21.1672 11.0806 18.8673 10.5226C18.6239 10.4636 18.5022 10.434 18.4397 10.363C18.3772 10.2921 18.3635 10.1693 18.3361 9.92399C17.9878 6.80207 15.3399 4.37476 12.125 4.37476C9.20171 4.37476 6.74772 6.38129 6.06431 9.09259C6.0149 9.2886 5.9902 9.3866 5.93372 9.44445C5.87724 9.5023 5.77924 9.52952 5.58325 9.58394Z" fill="#CACACA"/>
</svg>
